<svg width="88" height="136" viewBox="0 0 88 136" fill="none" xmlns="http://www.w3.org/2000/svg">
<path d="M41.6545 1.12337C44.1813 0.105866 47.1506 0.324397 49.534 1.63009C49.8413 1.81582 50.206 1.77607 50.5489 1.75699C62.9332 1.7106 75.3188 1.75034 87.7045 1.73647C87.7182 39.6707 87.706 77.605 87.7113 115.539C75.3011 115.619 62.8881 115.58 50.4778 115.557C50.3645 117.26 50.318 119.013 50.8685 120.653C51.7208 122.893 50.859 125.274 50.9272 127.578C50.9067 129.085 48.7936 129.279 48.9673 130.773C49.0847 131.378 48.4551 131.96 48.8416 132.512C48.3567 133.219 49.1353 134.273 48.3418 134.87C47.2133 135.564 45.815 135.434 44.546 135.515C43.277 135.463 41.9275 135.56 40.7502 135.007C40.0564 134.407 40.1943 133.399 40.0344 132.584C33.3869 132.783 26.7377 133.261 20.0872 133.171C26.7501 132.913 33.4087 132.611 40.0726 132.421C40.0276 131.762 39.2736 131.929 38.8147 131.884C33.7965 131.64 28.7879 131.236 23.767 130.999C29.1472 130.958 34.5301 131.46 39.8977 131.839C40.0713 129.741 40.3894 127.641 40.9713 125.603C41.0327 122.067 39.5112 118.754 38.2259 115.532C25.5822 115.632 12.9341 115.567 0.289062 115.561C0.301348 77.6242 0.284872 39.6872 0.298603 1.75164C13.546 1.71609 26.7952 1.7489 40.0425 1.73806C40.6328 1.7093 41.1161 1.32556 41.6545 1.12337ZM39.4554 2.90977C37.199 4.7946 35.665 7.90347 36.2838 10.8661C36.4914 9.94252 36.6144 8.99887 36.9191 8.09873C38.1402 6.10868 39.7205 3.99029 42.1653 3.4139C46.9964 2.14361 52.3916 5.72221 53.5282 10.4783C53.9639 9.23663 53.4941 7.86532 52.8697 6.76847C52.9775 6.83134 53.192 6.95564 53.3001 7.01836C52.714 5.48185 51.9532 3.92192 50.6107 2.90573C47.4882 0.295635 42.5845 0.324253 39.4554 2.90977ZM0.604574 2.06441C0.592433 39.7965 0.566419 77.5287 0.614114 115.261C13.1187 115.251 25.6247 115.246 38.1291 115.281C37.8819 114.538 37.6114 113.803 37.3725 113.059C25.854 112.995 14.333 113.045 2.8133 113.033C2.81735 76.7882 2.78468 40.5422 2.82819 4.29756C14.3547 4.27574 25.8868 4.34396 37.4106 4.26735C38.2112 3.497 38.9431 2.63386 39.8869 2.01642C26.7936 2.10126 13.6978 2.02351 0.604574 2.06441ZM50.2787 2.0316C51.1336 2.66682 51.9353 3.37849 52.5159 4.28109C63.4196 4.31808 74.3246 4.29337 85.2285 4.29482C85.223 40.5395 85.2421 76.784 85.223 113.029C73.7689 113.037 62.3147 113.019 50.8605 113.038C50.7636 113.779 50.5832 114.511 50.5641 115.261C62.8392 115.257 75.1169 115.258 87.392 115.259C87.4492 77.5217 87.4492 39.7829 87.3962 2.04533C75.0239 2.04663 62.6492 2.08219 50.2787 2.0316ZM3.10135 4.60353C3.11508 40.646 3.11913 76.6899 3.1041 112.731C14.4887 112.776 25.8731 112.74 37.2589 112.753C37.013 112.007 36.8342 111.242 36.5813 110.501C34.0682 110.367 32.3035 108.326 29.9092 107.866C26.7799 106.885 24.9305 103.853 23.592 101.06C23.0321 100.146 23.7517 99.2732 24.0974 98.4454C22.334 97.5452 20.1978 96.6274 19.5503 94.5786C19.4874 93.1635 20.1527 91.8154 20.6717 90.53C20.7113 92.1036 19.1596 94.02 20.6184 95.2998C21.6579 96.4867 23.1575 97.0521 24.4251 97.9302C27.1512 92.4615 28.673 86.356 28.2085 80.226C29.103 86.9268 27.109 93.639 24.1805 99.6078C23.8349 100.272 24.4427 100.905 24.6845 101.498C26.1064 104.29 28.2931 107.143 31.6628 107.442C32.2104 103.698 32.5629 99.9274 32.9577 96.1642H33.1092C32.9385 99.9902 32.4468 103.811 32.1792 107.619C33.3525 108.545 34.7388 109.228 36.2152 109.494C35.3711 105.76 35.1074 101.935 34.8001 98.1287C33.9901 89.9649 30.9989 82.2694 28.9555 74.3829C28.0704 70.8384 28.0253 67.1713 27.8396 63.5461C25.9656 65.1017 26.3905 67.7134 26.0996 69.8415C25.1243 71.9203 24.201 74.0878 24.1902 76.4344C23.9566 80.9377 23.4431 85.7811 20.8054 89.5658C22.3312 86.2127 23.1302 82.5602 23.26 78.8806C23.421 76.0491 23.8294 73.1508 25.2295 70.6362C25.706 69.8738 25.829 68.974 25.7539 68.0915C25.6828 66.1984 26.3754 64.2342 27.9243 63.0732C27.9188 60.683 27.6759 58.2368 27.576 55.826C27.1418 55.2236 26.5065 54.5967 26.8152 53.7744C27.4872 52.489 25.9575 51.3062 26.4261 49.9732C26.8003 49.1484 27.4927 48.5199 27.9039 47.7114C25.7007 45.3361 27.8779 42.2029 28.4968 39.6266C28.6634 36.0154 28.7153 32.3083 29.8694 28.8378C30.0702 28.1371 30.7258 27.6865 31.4428 27.6645C32.6489 27.655 33.5982 26.8163 34.486 26.106C33.7703 26.0473 32.9549 25.9326 32.5354 25.2673C33.1787 25.6675 34.3507 25.3957 34.18 24.4806C33.4876 23.6325 32.205 23.5286 31.5385 22.623C30.2914 21.1301 31.3458 18.7712 32.929 17.9886C31.8281 18.0337 30.6029 17.0994 30.7408 15.9179C30.7995 15.1092 31.4387 14.4714 32.1722 14.201C31.8199 14.5055 31.6927 15.1981 32.2841 15.2936C32.7662 15.1299 33.0189 14.6025 33.4807 14.3799C33.1214 15.1217 33.6761 16.1734 34.5816 15.9193C36.4268 15.7226 36.9076 13.3829 36.1947 11.9473C35.061 9.52164 35.8546 6.66542 37.3175 4.56494C25.9129 4.61582 14.5065 4.53936 3.10135 4.60353ZM52.7247 4.58446C53.6329 6.12646 54.1437 7.89119 54.1998 9.67918C55.4155 9.94266 56.8797 10.7937 56.7376 12.2304C56.8265 13.3191 55.5522 14.0813 55.9264 15.185C56.4578 16.0303 58.0422 15.7517 58.2035 14.7206C59.7469 15.5768 59.311 18.0504 57.463 18.0955C58.6226 18.9548 59.7004 20.3657 59.2864 21.8899C58.8617 23.2764 57.3606 23.7393 56.2529 24.4387C56.3647 25.0479 57.0641 25.1218 57.5531 25.2624C57.3373 25.799 56.9275 26.2157 56.4415 26.5175C58.4178 26.3331 60.7274 27.2101 61.1974 29.3382C62.3924 34.3851 61.5005 40.0302 64.3566 44.6127C65.0804 45.6536 64.3114 46.7598 63.2133 47.0207C63.8704 47.7432 64.1925 48.7061 64.9302 49.3617C65.8139 50.2633 65.4848 51.7178 64.6475 52.5292C63.981 53.0607 64.3647 54.0767 63.7241 54.6245C63.3361 55.0329 62.5919 55.022 62.4102 55.6244C61.7339 57.2756 60.8394 58.8286 60.1715 60.4799C59.8247 62.6708 60.3164 64.9067 60.2247 67.092C58.945 69.1531 59.9091 71.6117 60.1129 73.8287C60.0419 74.8037 61.4829 75.2587 61.002 76.309C61.7368 76.7926 61.7737 77.6898 61.0689 78.2253C61.2779 79.8014 61.3709 81.3927 61.6358 82.962C62.223 83.0044 63.2433 82.8227 63.2884 83.6696C64.0684 88.1482 64.8989 92.6173 65.6718 97.0959C65.8971 98.13 65.6991 99.3756 66.6142 100.124C67.9433 101.166 67.0402 103.024 66.2208 104.099C65.5176 104.78 66.453 106.287 65.2538 106.559C62.7831 107.165 60.3287 107.911 57.8291 108.362C56.645 107.738 55.8008 106.607 54.6425 105.937C53.9649 105.802 53.1086 106.227 52.6211 105.56C52.0473 107.951 51.3917 110.323 50.9478 112.744C62.2777 112.756 73.6089 112.765 84.9389 112.738C84.9306 76.6915 84.9497 40.6449 84.9279 4.59833C74.1934 4.55844 63.4591 4.58706 52.7247 4.58446ZM46.0594 6.19482C46.5687 6.07862 47.0906 5.96675 47.6151 6.05824C47.234 6.68247 46.3802 6.20985 45.8845 6.6592C47.7475 6.58289 50.3905 7.59764 50.3496 9.78021C50.4945 9.2216 50.4807 8.64391 50.445 8.07171C50.8577 8.47191 51.0393 9.05235 50.8358 9.60287C50.9409 9.45935 51.0474 9.31872 51.1607 9.18069C51.2223 9.9866 50.68 10.6368 50.3168 11.3033C50.9695 10.8156 51.027 9.85421 51.7248 9.43897C51.703 10.1723 51.2345 10.7624 50.8522 11.3498C51.6799 11.1668 51.7837 10.0412 52.5691 9.75593C52.6196 9.94281 52.6728 10.1301 52.7288 10.3158C52.5185 7.8354 50.3346 5.30726 47.6888 5.59401C47.1043 5.61294 46.2711 5.46942 46.0594 6.19482ZM42.9725 7.93903C41.6147 7.35165 39.7081 8.14253 39.4008 9.65736C39.133 10.8428 38.4679 12.0148 38.7614 13.2591C39.1548 14.4925 39.185 15.8009 39.4718 17.0575C40.1644 19.1773 41.623 21.1511 43.6964 22.0772C44.9161 22.5374 46.0484 21.6332 46.9364 20.9025C48.3404 19.8016 49.1298 18.1243 49.5492 16.4265C51.1077 16.6492 50.8633 14.2998 50.9123 13.2754C50.6281 13.4831 50.4932 13.8082 50.373 14.125C50.2882 14.1401 50.1203 14.1688 50.0354 14.1836C50.6325 14.2643 50.7553 15.204 50.3769 15.5591C50.3524 15.2013 50.2937 14.8407 50.0779 14.5444C49.8702 15.0867 49.8909 15.6972 49.6012 16.2094C49.5274 14.6863 50.209 13.1661 49.7529 11.6529C49.7023 11.2364 49.2434 10.8375 49.5589 10.4303C49.3936 9.96449 49.2912 9.45776 48.9156 9.10554C48.9743 9.08097 49.0931 9.03313 49.1519 9.00986C48.6342 8.17664 47.6972 8.00724 46.7752 8.13039C47.028 7.94987 47.2889 7.78207 47.5566 7.62221C45.9638 7.22605 44.5187 8.53305 42.9725 7.93903ZM37.7889 13.0446C37.9802 14.2329 37.7656 16.0318 39.0659 16.6095C39.0032 15.9524 38.9853 15.2587 38.6793 14.659C38.6098 14.883 38.5387 15.1056 38.4485 15.3228C37.9679 14.551 38.7478 13.5335 37.7889 13.0446ZM45.0949 23.3582C43.8301 23.2502 42.9506 22.1931 41.9657 21.5076C42.0954 22.7369 42.2199 24.0207 41.8362 25.2186C41.5616 26.0887 40.8103 26.6704 40.4088 27.4668C43.4712 28.5363 46.924 28.4188 49.8689 27.0378C48.1504 25.6091 48.1191 23.2708 47.8939 21.229C47.0182 21.9841 46.3721 23.2845 45.0949 23.3582ZM48.3457 22.5032C48.5644 24.0288 49.6598 25.1926 50.3479 26.5174C52.0376 29.4759 52.4624 32.9302 52.752 36.2657C53.0784 40.6843 52.9051 45.1233 53.252 49.5405C54.07 44.3612 56.3906 39.5737 57.6363 34.5105C56.5136 33.4288 54.8404 33.0519 53.6289 32.0341C53.835 31.3239 53.8651 30.5836 53.8242 29.8488C55.8307 29.3338 57.9737 29.6534 60.0293 29.3599C58.2209 30.1152 56.104 29.9403 54.1725 30.2859C54.1316 30.7994 53.9937 31.3076 54.0264 31.8251C55.2281 32.6215 56.5463 33.236 57.7907 33.9613C58.3876 34.3314 58.1798 35.1168 58.0242 35.6701C56.6596 40.1829 54.5386 44.4676 53.6233 49.1157C53.0907 52.6492 54.5903 56.0802 56.5422 58.9405C57.1212 57.356 57.5337 55.6992 57.7592 54.0273C56.6051 49.2114 55.5438 43.9733 56.9972 39.1229C56.4958 43.1387 56.9193 47.198 57.6937 51.1413C58.9023 47.9943 63.594 49.9203 64.0188 52.6451C64.5284 51.8911 65.3125 50.9582 64.8139 50.0076C64.228 49.1676 63.1802 48.8372 62.4686 48.1241C61.4181 47.153 60.0524 46.1177 58.5363 46.4276C57.4955 47.1544 57.9504 48.5311 57.538 49.5241C57.1253 48.3318 57.792 47.183 58.1485 46.1245C56.806 44.3926 58.9174 42.6333 58.4765 40.758C59.5077 42.5131 57.142 44.4281 58.5243 46.0876C60.5622 45.7337 62.1042 47.2786 63.6107 48.3562C63.4072 47.7976 62.5917 47.4848 62.7284 46.8346C63.2665 46.3865 64.4098 46.1285 64.0246 45.1928C62.1684 41.1949 59.8109 37.3815 58.6334 33.0982C58.4395 32.3047 58.3166 31.3976 58.7388 30.656C58.833 34.1334 60.7698 37.2284 62.0415 40.3877C61.6494 37.7953 61.3175 35.1879 61.1742 32.5656C61.0048 31.1477 60.9774 29.6288 60.222 28.3695C59.6006 27.3629 58.3345 27.005 57.2117 27.1225C58.1787 27.77 59.352 28.222 60.0267 29.2163C57.6473 28.0498 55.4702 26.4028 52.8559 25.7539C53.1264 26.139 53.405 26.5283 53.543 26.9859C52.1128 25.2227 50.5614 23.2641 48.3457 22.5032ZM37.9269 27.3986C38.0567 26.3892 38.4855 25.4535 38.797 24.4933C35.8862 25.3907 33.679 27.5856 31.1618 29.1632C31.4746 28.6755 31.9226 28.3013 32.3624 27.9325C31.6372 28.0664 30.6236 28.0621 30.4024 28.9501C29.4519 31.8471 29.2563 34.9366 29.1184 37.9634C29.8055 36.3763 30.0254 34.5815 30.8422 33.0736C30.2385 36.4117 29.0652 39.6159 28.0394 42.8436C27.5805 44.3242 26.8114 46.1217 28.083 47.4219C28.8739 46.0697 30.1946 44.8296 31.8473 44.8144C32.5179 44.7695 33.0423 45.2488 33.347 45.798C33.534 44.3392 32.8252 42.9705 32.9249 41.5159L33.0956 41.5214C33.0177 42.8735 33.9984 44.0497 33.7457 45.4073C33.5464 46.3716 33.855 47.3317 33.7991 48.3028C34.2361 46.1762 34.486 44.0127 34.5012 41.8409C34.8849 43.4131 34.6704 45.0575 34.5558 46.6527C34.1422 51.3815 31.6029 55.7508 31.9879 60.5806C33.8647 56.7563 36.2727 53.1378 37.4801 49.02C38.2165 46.0888 37.7056 43.0526 37.5525 40.0845C37.185 35.7123 37.5799 31.1175 39.7105 27.2016C40.444 25.721 41.6311 24.3553 41.6186 22.6163C39.1343 22.8366 38.9009 25.6652 37.9269 27.3986ZM55.473 26.1146C55.981 26.2949 56.4467 25.9642 56.8797 25.7417C56.4017 25.8194 55.9004 25.8674 55.473 26.1146ZM40.1574 27.6868C40.0551 27.8888 39.9526 28.0925 39.8582 28.3C43.2266 29.6126 47.1438 29.4623 50.4478 28.0242C50.3808 27.8547 50.3125 27.684 50.247 27.5161C47.066 28.782 43.3535 29.0238 40.1574 27.6868ZM39.7367 28.5239C38.9909 30.0345 38.5333 31.6737 38.2466 33.329C39.0661 33.135 39.8447 32.7705 40.69 32.6844C39.8132 33.172 38.8092 33.605 38.3352 34.5543C37.4092 36.5348 37.9801 38.8063 38.1905 40.8865C38.2288 41.9232 39.2504 42.3902 40.0821 42.7196C39.1042 43.8779 37.9775 45.23 38.3326 46.8636C38.8668 47.6176 39.7939 46.7858 40.3008 46.3978C39.9976 47.2336 39.0771 47.5029 38.2998 47.6967C38.2398 48.7403 38.3983 49.833 37.7644 50.7467C39.2996 50.8423 40.9987 50.9324 42.3429 50.0501C42.986 49.6539 43.3918 48.9915 43.9913 48.5464C42.8727 50.8587 40.0222 51.2221 37.7315 51.0199C37.5745 51.3286 37.4337 51.6456 37.3026 51.9651C38.7244 51.8735 40.048 52.4746 41.3935 52.8283C43.9722 53.5618 46.6739 53.5262 49.325 53.6846C46.2272 53.6806 43.0816 53.5399 40.1014 52.596C39.0906 52.4279 37.5349 51.7014 36.8491 52.7626C40.783 54.0725 44.9148 54.7841 49.0601 54.8456C50.7167 54.9331 52.3817 55.0559 53.9894 55.4944C53.8583 53.8622 51.9229 54.324 50.8425 53.8608C51.7452 53.8104 52.64 53.9825 53.5169 54.1778C52.9651 52.618 52.9761 50.6703 51.3056 49.8125C51.7837 49.9122 52.2576 50.0352 52.7451 50.0856C52.6235 48.7211 52.4897 47.2187 51.1784 46.4416C52.6851 46.1739 52.898 44.6647 52.4065 43.4284C51.6374 42.6868 50.5679 42.4026 49.657 41.8836C50.6362 41.8495 51.6264 41.9192 52.5894 41.6897C52.4528 38.8609 53.1249 35.2374 50.4465 33.3469C50.975 33.5122 51.5063 33.6925 52.0677 33.687C51.8097 31.8157 51.4025 29.9472 50.6445 28.21C47.2395 29.7326 43.2237 29.8611 39.7367 28.5239ZM29.6007 46.0658C28.5147 47.071 28.0709 48.5653 26.9934 49.5856C26.2899 50.1989 26.7912 51.0852 26.9974 51.8022C27.5698 49.4994 31.1033 49.1471 32.3994 50.9937C31.192 50.6249 29.9641 49.7646 28.6626 50.3013C27.4796 50.6509 26.8499 52.0319 27.5247 53.1136C27.0493 53.6804 26.9523 54.4576 27.4345 55.0545C27.5685 53.993 27.5412 52.4239 28.8986 52.2011C28.4929 52.6738 28.0628 53.1477 27.9207 53.776C28.8876 52.7557 30.3711 52.3992 31.7316 52.6271C30.8545 51.7914 29.6048 51.4074 28.4276 51.7654C29.6786 50.8366 31.7576 51.1289 32.5414 52.5467C32.7954 51.5824 33.6206 50.3217 32.7081 49.4735C31.562 48.4793 29.9532 48.9136 28.6118 49.1362C29.9901 48.1746 32.1261 48.0503 33.3051 49.4011C33.3773 48.8276 33.484 48.2524 33.4375 47.6734C32.3435 47.381 31.2412 47.7334 30.1608 47.9015C31.0417 47.183 32.4979 46.4961 33.4703 47.4344C33.3022 46.6517 33.3051 45.6163 32.4609 45.2243C31.4431 44.9048 30.3683 45.406 29.6007 46.0658ZM59.2236 50.2673C58.266 50.7821 57.8946 51.8722 57.7949 52.891C59.203 51.9294 61.1275 52.3405 62.3704 53.3895C62.074 52.193 60.9144 51.4377 59.7043 51.5237C61.6492 50.8093 63.4194 53.0303 62.667 54.8565C65.4042 53.1929 61.6836 48.5312 59.2236 50.2673ZM58.6827 53.5466C58.2824 55.3727 57.967 57.2331 57.3223 58.9992C56.5535 60.3609 58.1828 61.3744 58.7126 62.5041C59.677 59.969 61.1727 57.6838 62.245 55.2007C63.1763 53.2393 59.7358 52.29 58.6827 53.5466ZM36.5965 53.3281C35.2935 55.4915 34.0465 57.6974 32.8034 59.9005C31.4445 61.8701 31.3105 64.9666 28.6374 65.7492C28.5323 72.8982 31.3173 79.5717 33.1286 86.3657C34.5324 91.373 35.4749 96.5154 35.8355 101.707C36.1429 106.699 37.0389 111.737 39.1164 116.306C40.9603 115.828 42.8684 115.735 44.7655 115.694C44.6604 114.37 44.4977 113.045 44.532 111.716C42.3549 111.846 40.1694 111.964 38.0019 112.234C39.1532 111.816 40.4057 111.705 41.6241 111.63C41.6337 111.524 41.6555 111.309 41.6665 111.203C41.7389 111.322 41.81 111.443 41.8823 111.566C42.7606 111.517 43.647 111.546 44.5156 111.38C44.162 105.048 43.9927 98.6983 43.2701 92.3921C42.3167 85.0356 42.4123 77.5751 43.2359 70.2158C42.4165 69.417 41.1326 69.1067 40.2788 68.2817C41.1148 68.4157 41.9396 68.6492 42.7934 68.6517C42.7305 65.0993 43.031 61.5522 43.326 58.0143C41.6186 57.9254 39.9373 57.5963 38.271 57.2276C37.6836 59.648 37.5157 62.2063 36.8368 64.5706C37.0594 62.0642 37.5854 59.5946 37.9214 57.1021C36.9516 56.777 35.8384 56.729 34.9792 56.1704C35.9873 56.2974 36.9488 56.6758 37.9623 56.7783C38.1782 55.7841 38.2956 54.7706 38.5372 53.783C37.9009 53.6436 37.218 53.3035 36.5965 53.3281ZM28.0094 54.9767C28.2019 58.446 28.5722 61.9084 28.7197 65.3834C30.5594 64.5366 31.3627 62.373 31.3283 60.4579C31.353 58.6156 31.6958 56.8016 31.8284 54.9712C31.6112 52.9961 28.0886 52.9033 28.0094 54.9767ZM38.8721 53.8784C38.7491 54.8809 38.5114 55.8659 38.3462 56.8616C40.0167 57.1047 41.7022 57.3602 43.3958 57.2849C43.4368 56.4874 43.5571 55.6978 43.6704 54.9098C42.045 54.7036 40.4524 54.302 38.8721 53.8784ZM44.0378 54.9698C43.9436 55.7526 43.8466 56.5351 43.732 57.3149C45.375 57.4053 47.029 57.341 48.6585 57.1168C48.597 56.5459 48.4865 55.9832 48.3551 55.4274C46.9076 55.3837 45.472 55.1624 44.0378 54.9698ZM48.7679 55.4821C48.8594 55.9955 48.9644 56.5079 49.0834 57.0175C49.343 57.0132 49.6011 57.0107 49.862 57.0146C49.6189 57.1077 49.3716 57.188 49.1243 57.2645C49.5369 59.5771 50.1051 61.862 50.4985 64.1758C49.6449 62.0163 49.3633 59.6261 48.7624 57.3697C47.0838 57.7344 45.3736 57.9353 43.6607 58.0185C43.2865 61.5658 42.982 65.1198 42.8863 68.6846C45.5101 68.8936 48.115 68.4168 50.7156 68.1724C48.5998 68.9523 46.0608 68.8866 44.236 70.3495C43.7018 74.0346 43.3399 77.7525 43.213 81.4774C42.9712 89.9293 44.8041 98.2706 44.8424 106.714C46.5852 108.241 49.545 108.446 51.2535 106.757C52.5225 105.575 52.3436 103.689 52.5717 102.116C52.8653 100.39 51.5513 99.0313 51.0802 97.473C50.2237 95.2316 50.5803 92.7948 50.9517 90.4932C51.9802 84.2829 55.0671 78.7113 57.0203 72.7848C58.0706 69.6461 58.3506 66.3256 58.7387 63.0625C57.2826 60.9141 55.5603 58.9444 53.9704 56.8903C52.8614 55.1393 50.5038 55.7962 48.7679 55.4821ZM57.8741 71.8425C57.2731 73.1249 58.4736 74.2095 58.6418 75.4428C58.7102 76.2186 59.3574 76.7939 60.1184 76.8619C59.9666 73.5538 58.4136 70.0681 59.8355 66.8734C59.7577 65.2643 59.6375 63.6539 59.6443 62.0381C58.6758 65.2166 58.8956 68.6557 57.8741 71.8425ZM57.3085 73.5554C57.2513 73.7739 57.1967 73.9937 57.1393 74.2122C57.2935 74.2137 57.4492 74.2151 57.605 74.2192C57.5041 73.9977 57.4042 73.7766 57.3085 73.5554ZM60.2016 74.8748C60.2561 75.3021 60.3055 75.7352 60.4324 76.1504C61.2191 76.052 60.5184 75.1696 60.2016 74.8748ZM57.9806 76.3825C58.0516 76.3772 58.1949 76.3663 58.266 76.3593C58.3452 76.0971 58.4586 75.828 58.3726 75.5522C58.2087 75.8116 58.0886 76.0958 57.9806 76.3825ZM56.6078 82.2256C55.8321 82.3008 55.0426 82.346 54.3078 82.6328C53.5798 87.5812 53.2272 92.5955 53.0716 97.5945C53.084 98.6215 52.957 99.7226 53.5442 100.631C54.2011 101.771 53.6793 103.162 54.0837 104.334C54.4827 98.7036 54.6792 93.0558 55.1588 87.4298C55.2503 93.1691 54.387 98.9577 54.6412 104.696C54.5809 104.709 54.4608 104.737 54.4007 104.752C55.4932 105.623 56.5643 106.527 57.7129 107.324C57.2034 99.698 58.4493 92.1299 58.8807 84.5328C57.4249 83.9564 55.761 83.7459 54.4608 82.8828C55.9689 83.2379 57.415 83.8129 58.9081 84.2118C58.8617 83.4005 59.5323 82.9921 60.2714 83.0262C59.0965 82.686 57.8947 82.4183 56.6817 82.2667C57.5109 80.3641 57.2225 78.0735 57.3264 76.0083C56.6872 77.9507 56.7022 80.1687 56.6078 82.2256ZM53.9609 82.2667C54.6396 82.0032 55.3621 81.8871 56.0848 81.8105C56.3429 79.9803 56.2787 78.1309 56.3838 76.2938C55.5848 78.288 54.8474 80.3094 53.9609 82.2667ZM57.8291 76.8676C57.534 77.7048 58.1419 78.2471 58.8794 78.4669C58.8154 78.2074 58.7524 77.9478 58.6908 77.691C59.4341 77.5995 58.7852 79.0639 59.7072 78.7825C59.6879 78.2238 59.5227 77.6391 59.8505 77.1173C59.1089 76.847 58.6936 77.5764 58.3043 78.0532C58.1965 77.4289 58.6596 77.0109 59.1702 76.7761C58.7291 76.5246 58.2567 76.6584 57.8291 76.8676ZM60.4352 76.5192C60.6823 76.9303 60.8967 77.3619 61.0305 77.8248C61.7081 77.3468 61.1016 76.5356 60.4352 76.5192ZM60.1715 77.5723C60.3232 79.4639 60.5608 81.3543 60.6962 83.2499C60.8695 83.2499 61.0444 83.2515 61.2191 83.2528C61.0483 81.5209 60.9186 79.7794 60.6645 78.0572C60.6481 77.7798 60.3834 77.0232 60.1715 77.5723ZM58.0939 78.3645C58.3958 79.5994 58.3781 80.8818 58.6512 82.1233C59.1841 82.2751 59.7219 82.4074 60.2643 82.5222C60.2126 81.4129 60.0199 80.3177 59.9269 79.2127C59.2577 79.0774 58.6199 78.8057 58.0939 78.3645ZM57.6664 78.4818C57.6706 79.6374 57.4971 80.7834 57.4453 81.9374C57.6925 81.9756 57.9397 82.0113 58.1884 82.0454C57.9481 80.8692 57.8702 79.6674 57.7732 78.4736L57.6664 78.4818ZM59.4584 83.6776C58.818 88.5635 58.673 93.5051 58.0968 98.4019C57.7087 101.409 58.1089 104.427 58.1227 107.44C60.5772 107.067 62.9824 106.369 65.4135 105.85C65.5626 102.915 65.7156 99.9494 65.1772 97.0398C64.3715 92.5586 63.6011 88.0702 62.8076 83.5877C61.6903 83.6121 60.5743 83.664 59.4584 83.6776ZM65.9558 99.9971C66.0175 101.292 66.0323 102.594 65.8865 103.884C66.736 102.755 67.3982 100.961 65.9558 99.9971ZM44.8274 107.325C45.1005 111.82 44.8668 116.375 45.8436 120.802C47.4047 120.678 49.0478 120.491 50.5079 121.22C50.1896 120.202 49.9971 119.151 49.9357 118.087C48.5793 118.078 47.0357 119.207 45.8284 118.133C47.2149 118.502 48.5684 117.999 49.9302 117.785C49.9247 114.025 50.9792 110.382 51.8097 106.747C50.1419 108.855 46.8748 108.889 44.8274 107.325ZM39.1138 116.482C40.3472 119.757 42.0491 123.319 41.1326 126.876C41.9972 125.356 44.0472 124.677 45.6262 125.461C46.622 125.842 47.2692 126.716 48.015 127.428C47.5644 126.407 47.2639 125.279 46.5645 124.395C45.6248 123.721 44.3751 123.745 43.2959 124.027C44.1907 123.341 45.4322 123.452 46.4334 123.82C45.9622 122.982 45.7833 122.028 45.4513 121.138C44.4666 120.62 43.3546 121.225 42.3604 121.438C43.2208 120.803 44.3231 120.589 45.3762 120.671C45.0675 119.146 44.8394 117.599 44.7928 116.043C42.8905 115.993 40.9837 116.132 39.1138 116.482ZM46.0348 121.279C46.3067 122.191 46.6343 123.087 47.0318 123.953C48.2898 123.822 49.6229 123.968 50.6784 124.719C50.4436 123.659 51.4421 121.777 49.9614 121.411C48.7008 120.915 47.3364 121.086 46.0348 121.279ZM47.1738 124.249C47.768 125.255 48.0494 126.41 48.6011 127.418C48.6053 127.11 48.593 126.804 48.5726 126.5C48.6723 126.444 48.8689 126.334 48.9686 126.279C48.9468 126.614 48.9303 126.95 48.9277 127.287C49.8413 126.891 49.9383 125.682 50.1639 124.83C49.2444 124.36 48.1997 124.182 47.1738 124.249ZM41.6655 126.55C43.2511 125.621 45.2426 125.863 46.8024 126.722C45.5363 125.139 43.0051 124.966 41.6655 126.55ZM50.5216 126.01C50.1487 126.804 49.7293 127.87 48.6914 127.885C48.8511 128.302 48.9974 128.725 49.1489 129.147C50.284 128.572 50.8126 127.225 50.5216 126.01ZM41.6066 127.037C40.5822 127.677 40.5851 129.012 40.5919 130.08C42.7402 127.794 46.4146 128.328 48.5235 130.386C48.6053 129.657 48.5629 128.836 47.9974 128.296C46.4896 126.519 43.6376 125.607 41.6066 127.037ZM42.1706 129.419C43.5489 129.252 45.0309 129.035 46.3257 129.686C46.734 129.847 46.4187 130.342 46.4198 130.657C46.8174 130.547 47.2175 130.442 47.6109 130.317C46.1618 128.934 43.9901 128.438 42.1706 129.419ZM43.5747 129.561C43.5338 129.972 43.4627 130.381 43.3754 130.787C43.885 130.789 44.3957 130.78 44.9066 130.741C44.9161 130.353 44.9299 129.967 44.9407 129.58C44.49 129.492 44.027 129.464 43.5747 129.561ZM40.9619 130.262C41.0779 130.379 41.1954 130.499 41.3143 130.621C41.3703 130.18 41.6435 129.833 41.9193 129.505C41.5559 129.695 41.2338 129.954 40.9619 130.262ZM41.7295 130.587C42.3644 131.258 43.5885 130.583 43.2578 129.63C42.5983 129.542 41.6367 129.752 41.7295 130.587ZM45.1961 129.53C45.237 129.905 45.2546 130.282 45.2589 130.662C45.5471 130.64 45.8368 130.62 46.1277 130.598C46.151 130.392 46.1741 130.187 46.2 129.983C45.9119 129.74 45.5594 129.608 45.1961 129.53ZM40.4825 130.5C40.3459 131.072 40.3692 131.662 40.5056 132.233C43.0339 132.629 45.6373 132.421 48.1669 132.094C48.2502 131.61 48.3308 131.115 48.22 130.631C46.2341 131.226 44.139 131.208 42.082 131.199C41.474 131.193 40.9522 130.848 40.4825 130.5ZM40.5767 132.764C40.4484 133.808 41.1339 134.735 42.2307 134.7C44.0651 134.772 45.9719 134.936 47.7515 134.387C48.5345 134.127 48.1053 133.178 48.074 132.59C45.5924 132.902 43.0694 132.917 40.5767 132.764Z" fill="black" fill-opacity="0.5"/>
<path d="M42.3906 2.43072C43.9218 1.82976 45.7384 1.83236 47.2694 2.42667C45.6523 2.11376 44.005 2.08659 42.3906 2.43072Z" fill="black" fill-opacity="0.5"/>
<path d="M50.582 4.19922C51.3278 4.57066 51.9234 5.23464 52.3291 5.95426C51.6761 5.44753 51.1516 4.79339 50.582 4.19922Z" fill="black" fill-opacity="0.5"/>
<path d="M39.2812 12.2205C40.0489 11.1674 41.4856 11.5867 42.5156 11.9323C42.8994 12.0401 42.7504 12.5155 42.8162 12.809C41.7357 12.241 40.4765 12.1864 39.2812 12.2205Z" fill="black" fill-opacity="0.5"/>
<path d="M45.7597 11.9621C46.9317 11.574 48.4205 11.1657 49.4462 12.1069C48.1446 12.1353 46.7964 12.2284 45.6055 12.8021C45.6532 12.5207 45.7052 12.242 45.7597 11.9621Z" fill="black" fill-opacity="0.5"/>
<path d="M40.6248 12.6065C41.775 12.5682 42.6055 13.616 42.9605 14.6117C42.6055 14.5133 42.3828 14.2047 42.1164 13.9739C42.0563 14.1433 41.9961 14.3127 41.9375 14.4819C42.1615 14.5065 42.3867 14.5338 42.6108 14.5666C41.9635 14.837 41.2025 14.8985 40.5128 14.7742C39.9241 14.4737 39.7685 13.6364 39.0117 13.5805C39.2794 13.3961 39.5322 13.1898 39.7698 12.9685C39.8231 13.0479 39.9325 13.2048 39.9856 13.2841C40.0074 13.1665 40.0294 13.0479 40.0512 12.9304C40.2151 12.9617 40.3804 12.9946 40.5445 13.0288C40.5646 12.922 40.6056 12.7117 40.6248 12.6065ZM40.1918 13.8879C40.3174 14.3072 40.7163 14.4764 41.1097 14.5652C40.9717 14.3357 40.8296 14.1103 40.6877 13.8849C40.5209 13.885 40.3557 13.8863 40.1918 13.8879ZM41.3378 13.9615C41.3145 14.1473 41.2927 14.3331 41.2722 14.5186C41.4443 14.5173 41.6166 14.516 41.7899 14.516C41.6616 14.3138 41.5208 14.1186 41.3378 13.9615Z" fill="black" fill-opacity="0.5"/>
<path d="M47.031 12.7875C47.4231 12.7068 47.8205 12.6509 48.2206 12.625C48.2043 12.7561 48.1892 12.8872 48.1742 13.0183C48.487 13.1112 48.7957 13.2163 49.1071 13.3189C49.3255 13.241 49.5483 13.1742 49.775 13.1207C49.8651 13.7518 48.9376 13.5866 48.7669 14.1054C48.3627 15.0806 47.1417 14.8527 46.318 14.6833C46.4096 14.5562 46.5024 14.4319 46.5966 14.3062C46.7196 14.3731 46.8452 14.4415 46.971 14.5084C46.964 14.3432 46.96 14.1778 46.9558 14.0126C46.5365 14.0358 46.2401 14.3227 46.0283 14.66C45.9533 14.6259 45.8017 14.5562 45.7266 14.522C46.0408 14.0944 46.3863 12.5292 46.9926 13.1479C47.0023 13.0579 47.0214 12.8775 47.031 12.7875ZM47.6865 14.3076C47.501 14.2845 47.3177 14.2531 47.1347 14.2176C47.1457 14.2899 47.169 14.4361 47.18 14.5085C47.5461 14.4935 47.9257 14.4744 48.2469 14.2722C48.2359 14.0973 48.2251 13.9239 48.2139 13.7505C47.9912 13.8883 47.7767 14.0509 47.6865 14.3076Z" fill="black" fill-opacity="0.5"/>
<path d="M43.3242 17.1719C43.6071 17.2798 43.8747 17.4232 44.1413 17.568C44.3283 17.4492 44.5426 17.3999 44.764 17.3823C44.6506 17.6008 44.4676 17.766 44.2817 17.9217C43.9334 17.7209 43.3776 17.6553 43.3242 17.1719Z" fill="black" fill-opacity="0.5"/>
<path d="M42.6133 19.1016C43.0885 19.0142 43.4876 18.7383 43.8713 18.4609C43.9969 18.5675 44.1254 18.6741 44.2523 18.7818C44.9092 17.9282 45.4802 19.4539 46.2821 18.9226C45.6906 19.4157 45.3983 20.3526 44.5311 20.4237C43.6335 20.5522 43.0639 19.7395 42.6133 19.1016ZM43.1294 19.4731C43.7864 20.156 44.8998 20.2405 45.5266 19.469C44.7275 19.5004 43.9272 19.5618 43.1294 19.4731Z" fill="black" fill-opacity="0.5"/>
<path d="M46.4182 27.185C46.4114 26.5102 46.5917 25.8232 47.0165 25.2891C46.8827 25.9338 46.8103 26.6345 46.4182 27.185Z" fill="black" fill-opacity="0.5"/>
<path d="M43.6836 25.5078C44.0511 25.994 44.2655 26.573 44.4103 27.1605C43.9349 26.7493 43.7696 26.1047 43.6836 25.5078Z" fill="black" fill-opacity="0.5"/>
<path d="M30.2383 29.8085C31.6985 29.3727 33.3237 29.5148 34.8507 29.4533C36.0924 29.3769 37.0035 30.3739 37.2902 31.4995C35.8 32.6248 33.9876 33.2492 32.5028 34.3923C33.4412 38.0774 35.4845 41.3911 36.4229 45.0856C37.1209 47.2573 37.1359 49.7937 35.8355 51.7334C36.207 50.3073 36.8327 48.8718 36.5595 47.364C36.0145 43.7976 34.1815 40.6233 32.8101 37.3358C32.5178 36.2921 31.473 34.7884 32.507 33.9156C33.948 33.021 35.4531 32.2301 36.8791 31.3151C36.5553 30.7113 36.0226 30.1608 35.3042 30.098C33.6229 29.8945 31.9156 30.0912 30.2383 29.8085Z" fill="black" fill-opacity="0.5"/>
<path d="M45.2812 36.2945C46.5391 35.3698 48.26 35.1978 49.753 35.5337C48.211 35.3412 46.6825 35.6512 45.2812 36.2945Z" fill="black" fill-opacity="0.5"/>
<path d="M43.1367 40.9066C44.3251 40.5896 45.463 40.1375 46.5758 39.6172C45.6295 40.4243 44.3577 40.7987 43.1367 40.9066Z" fill="black" fill-opacity="0.5"/>
<path d="M44.0312 48.4405C44.4971 47.5323 45.0651 46.6034 45.8915 45.9805C45.2975 46.8137 44.7442 47.707 44.0312 48.4405Z" fill="black" fill-opacity="0.5"/>
<path d="M53.5977 76.6087C54.7832 72.9086 55.9839 69.1976 56.8662 65.4141C56.723 68.6088 55.465 71.6029 54.4731 74.6023C54.1755 75.266 54.0937 76.0527 53.5977 76.6087Z" fill="black" fill-opacity="0.5"/>
<path d="M30.0586 67.5898C30.4793 68.7003 30.553 69.9062 30.8016 71.0618C31.5624 75.3383 32.9611 79.4673 33.9635 83.6811C32.2782 78.454 30.5941 73.0887 30.0586 67.5898Z" fill="black" fill-opacity="0.5"/>
<path d="M35.9102 73.0078C37.6299 81.252 40.3205 89.3832 40.6976 97.8652C40.6635 102.128 41.0185 106.378 41.5921 110.596C40.5445 106.556 40.5308 102.3 40.315 98.1409C40.1062 89.5744 37.1874 81.4093 35.9102 73.0078Z" fill="black" fill-opacity="0.5"/>
<path d="M45.7661 90.4943C46.0952 84.6909 47.5567 78.8735 49.9906 73.6328C48.204 78.7369 46.5117 83.9599 46.1936 89.4015C45.7331 94.6383 46.4571 99.8736 46.4024 105.114C46.102 105.016 46.2069 104.657 46.166 104.425C46.0679 99.7808 45.3385 95.1409 45.7661 90.4943Z" fill="black" fill-opacity="0.5"/>
<path d="M55.9309 104.051C55.9036 100.112 56.3407 96.1768 56.6495 92.25C56.5959 96.1865 56.245 100.127 55.9309 104.051Z" fill="black" fill-opacity="0.5"/>
<path d="M46.125 111.008C47.4649 111.469 48.9305 111.728 50.2637 111.088C49.1327 112.11 47.2273 111.982 46.125 111.008Z" fill="black" fill-opacity="0.5"/>
<path d="M46.5625 114.473C47.6196 114.679 48.6768 114.656 49.7381 114.512C48.76 114.902 47.4874 115.072 46.5625 114.473Z" fill="black" fill-opacity="0.5"/>
<path d="M51.5703 131.873C57.5241 131.282 63.5421 130.955 69.5357 130.855C63.5395 131.062 57.5652 131.745 51.5703 131.873Z" fill="black" fill-opacity="0.5"/>
<path d="M51.4688 132.465C58.9975 132.554 66.522 132.978 74.0451 133.31C66.5207 133.142 58.973 132.995 51.4688 132.465Z" fill="black" fill-opacity="0.5"/>
</svg>
