<svg width="200" height="141" viewBox="0 0 200 141" fill="none" xmlns="http://www.w3.org/2000/svg">
<path d="M198.501 2.21094H2.06641V138.775H198.501V2.21094Z" fill="white"/>
<path d="M54.5156 132.119H153.393V56.048C153.393 28.7438 131.258 6.60938 103.954 6.60938C76.65 6.60938 54.5156 28.7438 54.5156 56.048V132.119Z" fill="white" stroke="#262525" stroke-width="0.646013" stroke-miterlimit="10" stroke-linecap="round" stroke-linejoin="round"/>
<path d="M57.4102 129.548H150.497V55.7633C150.497 30.1976 129.772 9.47266 104.207 9.47266H103.701C78.1354 9.47266 57.4105 30.1976 57.4105 55.7633V129.548H57.4102Z" fill="white" stroke="#262525" stroke-width="0.646013" stroke-miterlimit="10" stroke-linecap="round" stroke-linejoin="round"/>
<path d="M102.512 9.48781C102.909 9.47771 103.307 9.47266 103.706 9.47266H104.212C104.611 9.47266 105.01 9.47771 105.407 9.48781V36.2829H102.512V9.48781Z" fill="white" stroke="#262525" stroke-width="0.646013" stroke-miterlimit="10" stroke-linecap="round" stroke-linejoin="round"/>
<path d="M146.858 37.7272H61.0586C61.4747 36.744 61.9253 35.779 62.4062 34.832H145.51C145.991 35.7793 146.441 36.744 146.858 37.7272Z" fill="white" stroke="#262525" stroke-width="0.646013" stroke-miterlimit="10" stroke-linecap="round" stroke-linejoin="round"/>
<path d="M118.219 25.8711L126.755 31.6344" stroke="#262525" stroke-width="0.646013" stroke-miterlimit="10" stroke-linecap="round" stroke-linejoin="round"/>
<path d="M111.227 21.1562L115.326 23.9243" stroke="#262525" stroke-width="0.646013" stroke-miterlimit="10" stroke-linecap="round" stroke-linejoin="round"/>
<path d="M131.754 27.4961L136.163 30.4726" stroke="#262525" stroke-width="0.646013" stroke-miterlimit="10" stroke-linecap="round" stroke-linejoin="round"/>
<path d="M113.379 15.0938L128.653 25.4057" stroke="#262525" stroke-width="0.646013" stroke-miterlimit="10" stroke-linecap="round" stroke-linejoin="round"/>
<path d="M150.511 57.6602H99.9844V129.545" stroke="#262525" stroke-width="0.646013" stroke-miterlimit="10" stroke-linecap="round" stroke-linejoin="round"/>
<path d="M147.268 59.7852H101.941V125.873" stroke="#262525" stroke-width="0.646013" stroke-miterlimit="10" stroke-linecap="round" stroke-linejoin="round"/>
<path d="M147.972 74.668H105.02" stroke="#262525" stroke-width="0.646013" stroke-miterlimit="10" stroke-linecap="round" stroke-linejoin="round"/>
<path d="M145.253 76.9062H101.938" stroke="#262525" stroke-width="0.646013" stroke-miterlimit="10" stroke-linecap="round" stroke-linejoin="round"/>
<path d="M130.094 92.4844H105.02" stroke="#262525" stroke-width="0.646013" stroke-miterlimit="10" stroke-linecap="round" stroke-linejoin="round"/>
<path d="M117.556 94.7227H101.938" stroke="#262525" stroke-width="0.646013" stroke-miterlimit="10" stroke-linecap="round" stroke-linejoin="round"/>
<path d="M128.218 110.293H105.02" stroke="#262525" stroke-width="0.646013" stroke-miterlimit="10" stroke-linecap="round" stroke-linejoin="round"/>
<path d="M130.093 112.531H101.938" stroke="#262525" stroke-width="0.646013" stroke-miterlimit="10" stroke-linecap="round" stroke-linejoin="round"/>
<path d="M65.9612 78.5824H64.889C58.3379 78.5824 53.0273 73.2718 53.0273 66.7208V64.6719H77.8225V66.7208C77.8228 73.2718 72.5122 78.5824 65.9612 78.5824Z" fill="#262525" stroke="#262525" stroke-width="0.646013" stroke-miterlimit="10" stroke-linecap="round" stroke-linejoin="round"/>
<path d="M78.375 61.8359H52.4805V64.675H78.375V61.8359Z" fill="white" stroke="#262525" stroke-width="0.646013" stroke-miterlimit="10" stroke-linecap="round" stroke-linejoin="round"/>
<path d="M64.704 61.8359C59.6595 61.8359 55.5703 65.9252 55.5703 70.9696V85.9043" stroke="#262525" stroke-width="0.646013" stroke-miterlimit="10" stroke-linecap="round" stroke-linejoin="round"/>
<path d="M58.4044 88.7276C58.4044 90.3414 55.5714 95.2302 55.5714 95.2302C55.5714 95.2302 52.7383 90.2924 52.7383 88.7276C52.7383 87.1629 54.0066 85.8945 55.5714 85.8945C57.1361 85.8945 58.4044 87.1629 58.4044 88.7276Z" fill="white" stroke="#262525" stroke-width="0.646013" stroke-miterlimit="10" stroke-linecap="round" stroke-linejoin="round"/>
<path d="M53.4754 83.6658C52.0912 84.4954 46.4414 84.5785 46.4414 84.5785C46.4414 84.5785 49.2204 79.6101 50.5627 78.8058C51.905 78.0014 53.6447 78.4374 54.449 79.7794C55.2534 81.1214 54.8174 82.8614 53.4754 83.6658Z" fill="white" stroke="#262525" stroke-width="0.646013" stroke-miterlimit="10" stroke-linecap="round" stroke-linejoin="round"/>
<path d="M53.4754 72.9587C52.0912 73.7884 46.4414 73.8715 46.4414 73.8715C46.4414 73.8715 49.2204 68.9031 50.5627 68.0987C51.905 67.2944 53.6447 67.7304 54.449 69.0724C55.2534 70.4144 54.8174 72.1544 53.4754 72.9587Z" fill="white" stroke="#262525" stroke-width="0.646013" stroke-miterlimit="10" stroke-linecap="round" stroke-linejoin="round"/>
<path d="M61.4536 74.1349C62.541 75.3272 63.7425 80.8484 63.7425 80.8484C63.7425 80.8484 58.3217 79.1093 57.2672 77.9532C56.2128 76.7972 56.2953 75.0052 57.4514 73.9511C58.6074 72.8963 60.3994 72.9789 61.4536 74.1349Z" fill="white" stroke="#262525" stroke-width="0.646013" stroke-miterlimit="10" stroke-linecap="round" stroke-linejoin="round"/>
<path d="M63.9848 64.0685C65.0722 65.2608 66.2737 70.782 66.2737 70.782C66.2737 70.782 60.8529 69.0429 59.7985 67.8868C58.744 66.7308 58.8266 64.9388 59.9826 63.8847C61.1387 62.8299 62.9304 62.9125 63.9848 64.0685Z" fill="white" stroke="#262525" stroke-width="0.646013" stroke-miterlimit="10" stroke-linecap="round" stroke-linejoin="round"/>
<path d="M65.6797 61.8359C70.7242 61.8359 74.8134 65.9252 74.8134 70.9696V85.9043" stroke="#262525" stroke-width="0.646013" stroke-miterlimit="10" stroke-linecap="round" stroke-linejoin="round"/>
<path d="M71.9805 88.7276C71.9805 90.3414 74.8135 95.2302 74.8135 95.2302C74.8135 95.2302 77.6466 90.2924 77.6466 88.7276C77.6466 87.1629 76.3783 85.8945 74.8135 85.8945C73.2488 85.8945 71.9805 87.1629 71.9805 88.7276Z" fill="white" stroke="#262525" stroke-width="0.646013" stroke-miterlimit="10" stroke-linecap="round" stroke-linejoin="round"/>
<path d="M76.9082 83.6658C78.2924 84.4954 83.9422 84.5785 83.9422 84.5785C83.9422 84.5785 81.1632 79.6101 79.8209 78.8058C78.4789 78.0014 76.7389 78.4374 75.9345 79.7794C75.1305 81.1214 75.5662 82.8614 76.9082 83.6658Z" fill="white" stroke="#262525" stroke-width="0.646013" stroke-miterlimit="10" stroke-linecap="round" stroke-linejoin="round"/>
<path d="M76.9082 72.9587C78.2924 73.7884 83.9422 73.8715 83.9422 73.8715C83.9422 73.8715 81.1632 68.9031 79.8209 68.0987C78.4789 67.2944 76.7389 67.7304 75.9345 69.0724C75.1305 70.4144 75.5662 72.1544 76.9082 72.9587Z" fill="white" stroke="#262525" stroke-width="0.646013" stroke-miterlimit="10" stroke-linecap="round" stroke-linejoin="round"/>
<path d="M68.9256 74.1347C67.8382 75.327 66.6367 80.8482 66.6367 80.8482C66.6367 80.8482 72.0575 79.1091 73.112 77.953C74.1664 76.797 74.0839 75.005 72.9278 73.9508C71.7718 72.8967 69.9801 72.9786 68.9256 74.1347Z" fill="white" stroke="#262525" stroke-width="0.646013" stroke-miterlimit="10" stroke-linecap="round" stroke-linejoin="round"/>
<path d="M66.3944 64.0683C65.307 65.2606 64.1055 70.7818 64.1055 70.7818C64.1055 70.7818 69.5263 69.0426 70.5807 67.8866C71.6352 66.7306 71.5526 64.9386 70.3966 63.8844C69.2405 62.8303 67.4488 62.9122 66.3944 64.0683Z" fill="white" stroke="#262525" stroke-width="0.646013" stroke-miterlimit="10" stroke-linecap="round" stroke-linejoin="round"/>
<path d="M65.9375 61.8366C65.9375 61.8366 69.1291 55.8711 79.8272 55.8711" stroke="#262525" stroke-width="0.646013" stroke-miterlimit="10" stroke-linecap="round" stroke-linejoin="round"/>
<path d="M82.8539 58.6959C84.4641 58.5884 89.1533 55.4357 89.1533 55.4357C89.1533 55.4357 84.0376 52.938 82.4764 53.0422C80.9152 53.1465 79.7342 54.4965 79.8384 56.0577C79.9427 57.6192 81.2927 58.8005 82.8539 58.6959Z" fill="white" stroke="#262525" stroke-width="0.646013" stroke-miterlimit="10" stroke-linecap="round" stroke-linejoin="round"/>
<path d="M77.826 53.7071C78.3874 52.194 77.4318 46.625 77.4318 46.625C77.4318 46.625 73.058 50.269 72.5136 51.736C71.9694 53.203 72.7173 54.8334 74.1841 55.3776C75.6508 55.9217 77.2818 55.1741 77.826 53.7071Z" fill="white" stroke="#262525" stroke-width="0.646013" stroke-miterlimit="10" stroke-linecap="round" stroke-linejoin="round"/>
<path d="M71.6495 62.7922C72.9522 63.7448 78.5706 64.3433 78.5706 64.3433C78.5706 64.3433 76.2567 59.1417 74.9937 58.2182C73.7308 57.2947 71.9581 57.5698 71.0346 58.8331C70.1111 60.096 70.3862 61.8684 71.6495 62.7922Z" fill="white" stroke="#262525" stroke-width="0.646013" stroke-miterlimit="10" stroke-linecap="round" stroke-linejoin="round"/>
<path d="M64.8233 61.8366C64.8233 61.8366 61.6317 55.8711 50.9336 55.8711" stroke="#262525" stroke-width="0.646013" stroke-miterlimit="10" stroke-linecap="round" stroke-linejoin="round"/>
<path d="M47.9127 58.6959C46.3025 58.5884 41.6133 55.4357 41.6133 55.4357C41.6133 55.4357 46.729 52.938 48.2902 53.0422C49.8514 53.1465 51.0324 54.4965 50.9282 56.0577C50.8239 57.6192 49.4736 58.8005 47.9127 58.6959Z" fill="white" stroke="#262525" stroke-width="0.646013" stroke-miterlimit="10" stroke-linecap="round" stroke-linejoin="round"/>
<path d="M53.7158 53.7071C53.1544 52.194 54.1099 46.625 54.1099 46.625C54.1099 46.625 58.4837 50.269 59.0282 51.736C59.5723 53.203 58.8244 54.8334 57.3577 55.3776C55.8903 55.922 54.2599 55.1741 53.7158 53.7071Z" fill="white" stroke="#262525" stroke-width="0.646013" stroke-miterlimit="10" stroke-linecap="round" stroke-linejoin="round"/>
<path d="M59.1086 62.7922C57.8058 63.7448 52.1875 64.3433 52.1875 64.3433C52.1875 64.3433 54.5014 59.1417 55.7643 58.2182C57.0273 57.2947 58.8 57.5698 59.7235 58.8331C60.6469 60.096 60.3716 61.8684 59.1086 62.7922Z" fill="white" stroke="#262525" stroke-width="0.646013" stroke-miterlimit="10" stroke-linecap="round" stroke-linejoin="round"/>
<path d="M65.4336 61.8355V40.4102" stroke="#262525" stroke-width="0.646013" stroke-miterlimit="10" stroke-linecap="round" stroke-linejoin="round"/>
<path d="M68.2677 42.3737C68.2677 40.7599 65.4346 35.8711 65.4346 35.8711C65.4346 35.8711 62.6016 40.8089 62.6016 42.3737C62.6016 43.9384 63.8699 45.2068 65.4346 45.2068C66.9994 45.2065 68.2677 43.9381 68.2677 42.3737Z" fill="white" stroke="#262525" stroke-width="0.646013" stroke-miterlimit="10" stroke-linecap="round" stroke-linejoin="round"/>
<path d="M64.1268 47.9795C63.0411 46.7854 57.6562 45.0742 57.6562 45.0742C57.6562 45.0742 58.8821 50.6337 59.9345 51.7913C60.9871 52.9488 62.7788 53.034 63.9364 51.9817C65.0942 50.929 65.1794 49.1373 64.1268 47.9795Z" fill="white" stroke="#262525" stroke-width="0.646013" stroke-miterlimit="10" stroke-linecap="round" stroke-linejoin="round"/>
<path d="M71.3307 55.7542C72.018 54.294 71.5362 48.6641 71.5362 48.6641C71.5362 48.6641 66.8702 51.9255 66.204 53.3414C65.5377 54.7573 66.1451 56.4448 67.5608 57.111C68.9767 57.7775 70.6645 57.1701 71.3307 55.7542Z" fill="white" stroke="#262525" stroke-width="0.646013" stroke-miterlimit="10" stroke-linecap="round" stroke-linejoin="round"/>
<path d="M51.1879 134.691H156.73V129.552H51.1879V134.691Z" fill="white" stroke="#262525" stroke-width="0.646013" stroke-miterlimit="10" stroke-linecap="round" stroke-linejoin="round"/>
<path d="M141.344 129.555H130.086V128.898C130.086 128.398 130.491 127.992 130.991 127.992H140.439C140.939 127.992 141.345 128.398 141.345 128.898V129.555H141.344Z" fill="#262525" stroke="#262525" stroke-width="0.646013" stroke-miterlimit="10" stroke-linecap="round" stroke-linejoin="round"/>
<path d="M142.043 116.474L138.505 114.001C138.503 114.001 140.946 109.77 140.946 109.77H130.484L132.927 114.001L129.388 116.474C125.979 118.857 125.936 123.889 129.304 126.33L131.597 127.991H139.834L142.127 126.33C145.495 123.889 145.452 118.857 142.043 116.474Z" fill="#262525" stroke="#262525" stroke-width="0.646013" stroke-miterlimit="10" stroke-linecap="round" stroke-linejoin="round"/>
<path d="M130.094 105.492L132.957 109.769" stroke="#262525" stroke-width="0.646013" stroke-miterlimit="10" stroke-linecap="round" stroke-linejoin="round"/>
<path d="M129.102 105.59C131.232 105.59 132.959 104.376 132.959 102.879C132.959 101.382 131.232 100.168 129.102 100.168C126.973 100.168 125.246 101.382 125.246 102.879C125.246 104.376 126.973 105.59 129.102 105.59Z" fill="white" stroke="#262525" stroke-width="0.646013" stroke-miterlimit="10" stroke-linecap="round" stroke-linejoin="round"/>
<path d="M130.559 104.599H128.421C127.472 104.599 126.703 103.83 126.703 102.881C126.703 101.933 127.472 101.164 128.421 101.164H129.662C130.365 101.164 130.936 101.735 130.936 102.438C130.936 103.142 130.365 103.713 129.662 103.713H128.598C128.139 103.713 127.767 103.34 127.767 102.881C127.767 102.423 128.139 102.05 128.598 102.05H129.567C129.821 102.05 130.027 102.257 130.027 102.511C130.027 102.766 129.821 102.972 129.567 102.972H128.653" stroke="#262525" stroke-width="0.646013" stroke-miterlimit="10" stroke-linecap="round" stroke-linejoin="round"/>
<path d="M135.129 99.6367V109.77" stroke="#262525" stroke-width="0.646013" stroke-miterlimit="10" stroke-linecap="round" stroke-linejoin="round"/>
<path d="M135.134 99.6368C137.263 99.6368 138.99 98.4231 138.99 96.9258C138.99 95.4286 137.263 94.2148 135.134 94.2148C133.004 94.2148 131.277 95.4286 131.277 96.9258C131.277 98.4231 133.004 99.6368 135.134 99.6368Z" fill="white" stroke="#262525" stroke-width="0.646013" stroke-miterlimit="10" stroke-linecap="round" stroke-linejoin="round"/>
<path d="M136.512 98.5364H134.374C133.425 98.5364 132.656 97.7674 132.656 96.819C132.656 95.8703 133.425 95.1016 134.374 95.1016H135.615C136.318 95.1016 136.889 95.6722 136.889 96.3758C136.889 97.0795 136.318 97.6501 135.615 97.6501H134.551C134.092 97.6501 133.72 97.2779 133.72 96.819C133.72 96.3601 134.092 95.9879 134.551 95.9879H135.52C135.774 95.9879 135.981 96.1943 135.981 96.4489C135.981 96.7034 135.774 96.9099 135.52 96.9099H134.607" stroke="#262525" stroke-width="0.646013" stroke-miterlimit="10" stroke-linecap="round" stroke-linejoin="round"/>
<path d="M139.211 108.262L138.453 109.774" stroke="#262525" stroke-width="0.646013" stroke-miterlimit="10" stroke-linecap="round" stroke-linejoin="round"/>
<path d="M140.138 108.348C142.267 108.348 143.994 107.134 143.994 105.637C143.994 104.14 142.267 102.926 140.138 102.926C138.008 102.926 136.281 104.14 136.281 105.637C136.281 107.134 138.008 108.348 140.138 108.348Z" fill="white" stroke="#262525" stroke-width="0.646013" stroke-miterlimit="10" stroke-linecap="round" stroke-linejoin="round"/>
<path d="M141.684 107.22H139.546C138.597 107.22 137.828 106.451 137.828 105.503C137.828 104.554 138.597 103.785 139.546 103.785H140.787C141.49 103.785 142.061 104.356 142.061 105.059C142.061 105.763 141.49 106.334 140.787 106.334H139.723C139.264 106.334 138.892 105.961 138.892 105.503C138.892 105.044 139.264 104.671 139.723 104.671H140.691C140.946 104.671 141.152 104.878 141.152 105.132C141.152 105.387 140.946 105.593 140.691 105.593H139.778" stroke="#262525" stroke-width="0.646013" stroke-miterlimit="10" stroke-linecap="round" stroke-linejoin="round"/>
<path d="M144.602 85.6274C144.931 88.8659 142.572 91.7578 139.333 92.0866L112.802 95.1555C109.564 95.4843 106.672 93.1256 106.343 89.8868C106.014 86.6483 108.373 83.7564 111.612 83.4276L138.143 80.3587C141.381 80.0302 144.273 82.3889 144.602 85.6274Z" fill="white" stroke="#262525" stroke-width="0.646013" stroke-miterlimit="10" stroke-linecap="round" stroke-linejoin="round"/>
<path d="M118.848 81.3359L111.116 82.2945C107.301 82.781 104.601 86.2687 105.088 90.0847C105.574 93.9006 109.062 96.5997 112.878 96.1132L121.055 95.0709L118.848 81.3359Z" fill="white" stroke="#262525" stroke-width="0.646013" stroke-miterlimit="10" stroke-linecap="round" stroke-linejoin="round"/>
<path d="M83.6142 84.2563H107.773C109.177 84.2563 110.141 82.835 109.613 81.5346C109.006 80.0379 108.237 79.1604 109.233 78.8114C111.408 78.049 112.397 73.9027 111.244 71.1688C110.091 68.435 110.294 68.8321 110.984 61.038C111.674 53.2437 106.272 50.5175 106.272 50.5175C106.272 50.5175 101.678 48.5592 98.2777 48.6391C89.0107 49.1399 86.0419 61.4307 86.818 64.4934C87.5942 67.5564 82.9896 68.3628 82.8883 72.2901C82.787 76.2175 86.393 76.6265 82.5761 80.4665C82.3932 80.6506 82.2265 80.8363 82.0753 81.0234C81.0253 82.3211 81.9446 84.2563 83.6142 84.2563Z" fill="white" stroke="#262525" stroke-width="0.646013" stroke-miterlimit="10" stroke-linecap="round" stroke-linejoin="round"/>
<path d="M97.1768 84.253H100.706C102.301 84.253 103.594 82.96 103.594 81.3653V68.5948C103.594 67 102.301 65.707 100.706 65.707H97.1768C95.582 65.707 94.2891 67 94.2891 68.5948V81.365C94.2891 82.96 95.582 84.253 97.1768 84.253Z" fill="white" stroke="#262525" stroke-width="0.646013" stroke-miterlimit="10" stroke-linecap="round" stroke-linejoin="round"/>
<path d="M96.2148 70.3556V65.8713C96.5154 65.7653 96.8386 65.707 97.1757 65.707H100.705C102.3 65.707 103.593 67 103.593 68.5948V78.948C99.3363 78.948 96.2148 75.029 96.2148 70.3556Z" fill="#262525"/>
<path d="M105.908 75.5403C109.374 74.8898 111.656 71.5526 111.006 68.0866L108.739 56.0082C107.889 51.4796 103.529 48.4978 99.0003 49.3479C94.4718 50.198 91.4899 54.5578 92.34 59.0863L93.8849 67.3173C94.934 72.908 100.317 76.5897 105.908 75.5403Z" fill="white" stroke="#262525" stroke-width="0.646013" stroke-miterlimit="10" stroke-linecap="round" stroke-linejoin="round"/>
<path d="M102.921 53.9185C102.921 53.9185 102.615 58.8438 97.7006 60.4917C95.769 61.101 95.4603 62.1382 95.4603 62.1382L94.2906 69.771V72.8158C94.2906 72.8158 91.3444 70.8043 90.0612 60.4891C89.3484 54.7576 92.4627 49.7437 98.5385 48.6031C104.371 47.5083 108.824 51.0349 109.455 57.8158C109.481 58.0986 109.456 58.2688 109.179 58.3136C109.179 58.3136 107.417 52.7699 102.921 53.9185Z" fill="white"/>
<path d="M109.185 58.3135C109.185 58.3135 107.423 52.7698 102.927 53.9184C102.927 53.9184 102.621 58.8437 97.7068 60.4917C95.7752 61.1009 95.4666 62.1381 95.4666 62.1381L94.2969 69.7709V72.8158" stroke="#262525" stroke-width="0.646013" stroke-miterlimit="10" stroke-linecap="round" stroke-linejoin="round"/>
<path d="M98.5469 48.6034C100.726 48.1944 102.665 48.3789 104.272 49.1235C104.944 49.4348 105.558 49.8441 106.107 50.3491C106.107 50.3491 106.648 50.6797 107.091 51.0379" stroke="#262525" stroke-width="0.646013" stroke-miterlimit="10" stroke-linecap="round" stroke-linejoin="round"/>
<path d="M104.252 49.1235C97.2131 48.0328 94.5847 51.8695 93.6654 55.6759C92.7588 59.428 93.8195 65.5112 93.8195 65.5112L92.5476 65.75C92.5476 65.75 89.073 54.9078 93.5994 49.9994C93.5994 49.9994 95.4499 47.7821 99.7557 47.7619C103.384 47.7449 104.252 49.1235 104.252 49.1235Z" fill="#262525" stroke="#262525" stroke-width="0.646013" stroke-miterlimit="10" stroke-linecap="round" stroke-linejoin="round"/>
<path d="M99.9199 63.2808C100.015 63.7858 100.32 63.779 100.686 63.71C101.052 63.6414 101.339 63.5372 101.244 63.0322C101.118 62.3559 100.821 62.4117 100.455 62.4803C100.09 62.5489 99.7946 62.6128 99.9199 63.2808Z" fill="#262525"/>
<path d="M102.577 63.1796C102.577 63.1796 101.455 61.8777 99.363 62.7881C99.363 62.7881 98.2093 63.315 97.5 63.0299" stroke="#262525" stroke-width="0.646013" stroke-miterlimit="10" stroke-linecap="round" stroke-linejoin="round"/>
<path d="M104.43 61.5586C104.43 61.5586 105.959 64.6332 106.642 66.5573C106.729 66.8009 106.595 67.0682 106.348 67.144C105.895 67.2827 104.454 67.4885 104.454 67.4885" stroke="#262525" stroke-width="0.646013" stroke-miterlimit="10" stroke-linecap="round" stroke-linejoin="round"/>
<path d="M105.733 69.6421C104.918 69.6496 103.212 69.5153 101.575 68.443C101.365 68.3052 101.081 68.4151 101.021 68.6598C100.774 69.6769 100.51 71.9221 102.814 72.4283C104.876 72.8812 105.768 71.0489 106.081 70.1227C106.161 69.8851 105.983 69.6398 105.733 69.6421Z" fill="#262525" stroke="#262525" stroke-width="0.646013" stroke-miterlimit="10" stroke-linecap="round" stroke-linejoin="round"/>
<path d="M103.371 68.6867C103.608 68.7538 103.772 68.9555 103.802 69.1857C103.947 69.0051 104.192 68.9184 104.43 68.9855C104.748 69.0752 104.933 69.4058 104.843 69.7239C104.753 70.042 104.423 70.2271 104.105 70.1371C103.867 70.07 103.704 69.8683 103.674 69.6381C103.528 69.8187 103.283 69.9054 103.045 69.8383C102.727 69.7486 102.542 69.418 102.632 69.0999C102.722 68.782 103.052 68.597 103.371 68.6867Z" fill="white" stroke="#262525" stroke-width="0.646013" stroke-miterlimit="10" stroke-linecap="round" stroke-linejoin="round"/>
<path d="M101.023 68.6598C101.083 68.4153 101.367 68.3051 101.577 68.443C103.214 69.5155 104.92 69.6495 105.735 69.6421C105.986 69.6397 106.164 69.885 106.083 70.1224C106.008 70.3457 105.898 70.622 105.747 70.9059C104.858 70.7791 102.332 70.3484 100.895 69.3884C100.925 69.1128 100.974 68.8621 101.023 68.6598Z" fill="white" stroke="#262525" stroke-width="0.646013" stroke-miterlimit="10" stroke-linecap="round" stroke-linejoin="round"/>
<path d="M102.811 72.4257C101.715 72.1851 101.201 71.5516 100.988 70.8438C101.796 71.0814 103.963 71.7054 104.896 71.9737C104.393 72.3839 103.714 72.6241 102.811 72.4257Z" fill="white" stroke="#262525" stroke-width="0.646013" stroke-miterlimit="10" stroke-linecap="round" stroke-linejoin="round"/>
<path d="M99.3139 61.4175L101.129 61.0768C101.377 61.0301 101.54 60.7919 101.493 60.5442C101.447 60.2965 101.209 60.1334 100.961 60.1797L99.1458 60.5204C98.898 60.5671 98.735 60.8053 98.7813 61.053C98.8276 61.3007 99.0662 61.4638 99.3139 61.4175Z" fill="#262525" stroke="#262525" stroke-width="0.646013" stroke-miterlimit="10" stroke-linecap="round" stroke-linejoin="round"/>
<path d="M106.353 60.0972L108.168 59.7565C108.416 59.7098 108.579 59.4716 108.533 59.2239C108.486 58.9762 108.248 58.8131 108 58.8594L106.185 59.2001C105.937 59.2468 105.774 59.485 105.82 59.7327C105.867 59.9804 106.105 60.1435 106.353 60.0972Z" fill="#262525" stroke="#262525" stroke-width="0.646013" stroke-miterlimit="10" stroke-linecap="round" stroke-linejoin="round"/>
<path d="M108.471 61.687C108.566 62.1919 108.279 62.2962 107.913 62.3648C107.547 62.4334 107.242 62.4406 107.147 61.9356C107.02 61.2593 107.317 61.2037 107.682 61.1351C108.048 61.0665 108.346 61.019 108.471 61.687Z" fill="#262525"/>
<path d="M105.957 62.5586C105.957 62.5586 106.531 60.9383 108.811 61.0283C108.811 61.0283 109.702 61.1715 110.26 60.6484" stroke="#262525" stroke-width="0.646013" stroke-miterlimit="10" stroke-linecap="round" stroke-linejoin="round"/>
<path d="M92.0274 68.2215L93.937 68.7249C95.4914 69.1348 96.9423 67.7848 96.6456 66.2052C96.4897 65.3747 95.8698 64.7082 95.0526 64.4928L93.143 63.9894C91.5887 63.5795 89.7628 64.9999 90.0593 66.5795C90.2152 67.41 91.2103 68.0061 92.0274 68.2215Z" fill="white"/>
<path d="M95.1418 64.5184C95.1123 64.5092 95.0826 64.5008 95.0526 64.4928L93.143 63.9894C91.5887 63.5795 89.7628 64.9999 90.0593 66.5795C90.2152 67.41 91.2103 68.0061 92.0274 68.2215L93.937 68.7249C94.2183 68.7992 94.496 68.8155 94.7607 68.7837" stroke="#262525" stroke-width="0.646013" stroke-miterlimit="10" stroke-linecap="round" stroke-linejoin="round"/>
<path d="M94.8169 67.3357C94.9779 67.0366 95.0412 66.6825 94.9738 66.3228C94.8169 65.4867 94.012 64.9363 93.1758 65.0931C92.6248 65.1965 92.198 65.5814 92.0156 66.0712" stroke="#262525" stroke-width="0.646013" stroke-miterlimit="10" stroke-linecap="round" stroke-linejoin="round"/>
<path d="M94.9108 66.0792C94.6978 66.0237 94.4896 66.0094 94.2588 66.0528C93.7363 66.1508 93.3252 66.5022 93.1289 66.9557" stroke="#262525" stroke-width="0.646013" stroke-miterlimit="10" stroke-linecap="round" stroke-linejoin="round"/>
<path d="M152.228 53.0389C155.221 54.3188 156.61 57.7825 155.33 60.7757L144.225 88.5138C142.945 91.507 139.482 92.8956 136.489 91.616C133.495 90.3361 132.106 86.8724 133.386 83.8793L145.866 55.8666C147.146 52.8735 149.235 51.7593 152.228 53.0389Z" fill="white"/>
<path d="M135.572 81.5956L134.781 80.7476L145.866 55.8665C147.145 52.8734 149.234 51.7592 152.228 53.0391C155.221 54.319 156.61 57.7827 155.33 60.7759L144.225 88.514C143.383 90.4824 141.597 91.757 139.621 92.035L137.692 92.2765" stroke="#262525" stroke-width="0.646013" stroke-miterlimit="10" stroke-linecap="round" stroke-linejoin="round"/>
<path d="M109.013 118.521H87.3369L86.8477 110.293H109.747L109.013 118.521Z" fill="white" stroke="#262525" stroke-width="0.646013" stroke-miterlimit="10" stroke-linecap="round" stroke-linejoin="round"/>
<path d="M94.3008 80.9844L89.5469 82.1167L91.7 93.2583L111.125 93.1133L108.065 82.3626L103.634 80.9986L94.3008 80.9844Z" fill="white"/>
<path d="M94.3008 80.9844L89.5469 82.1167L91.7 93.2583L111.125 93.1133L108.065 82.3626L103.598 80.9876" stroke="#262525" stroke-width="0.646013" stroke-miterlimit="10" stroke-linecap="round" stroke-linejoin="round"/>
<path d="M113.73 93.7692L112.518 91.3466L111.068 82.2869L107.929 81.9515C107.75 81.9322 107.608 82.1 107.656 82.2738L107.727 82.5304C108.502 85.0837 108.895 87.7377 108.893 90.4062C108.892 91.553 107.946 92.4762 106.799 92.4762H97.5087C95.8236 92.4762 94.3762 91.2824 94.0527 89.6286C93.6767 87.7059 92.8079 85.9139 91.5312 84.4279L89.6332 82.1238C89.4586 81.9117 89.1758 81.8184 88.9111 81.8921C86.5352 82.5533 83.957 83.6535 81.9336 84.4733L86.1158 100.175V113.202H110.619L111.705 104.907L111.817 104.726C114.539 101.126 115.597 97.6531 113.73 93.7692Z" fill="white"/>
<path d="M111.068 82.2869L107.929 81.9515C107.75 81.9322 107.608 82.1 107.656 82.2738L107.727 82.5304C108.502 85.0837 108.895 87.7377 108.893 90.4062C108.892 91.553 107.946 92.4762 106.799 92.4762H97.5087C95.8236 92.4762 94.3762 91.2824 94.0527 89.6286C93.6767 87.7059 92.8079 85.9139 91.5312 84.4279L89.6332 82.1238C89.4586 81.9117 89.1758 81.8184 88.9111 81.8921C86.5352 82.5533 83.957 83.6535 81.9336 84.4733L86.1158 100.175V113.202H110.619L111.705 104.907L111.817 104.726C114.539 101.126 115.597 97.6528 113.73 93.7689L112.518 91.3463L111.985 88.0145" stroke="#262525" stroke-width="0.646013" stroke-miterlimit="10" stroke-linecap="round" stroke-linejoin="round"/>
<path d="M86.1476 118.531C81.2044 122.817 79.7344 129.541 79.7344 129.541H113.446C111.807 122.152 109.531 118.166 109.531 118.166V116.711H86.3694L86.1476 118.531Z" fill="#262525" stroke="#262525" stroke-width="0.646013" stroke-miterlimit="10" stroke-linecap="round" stroke-linejoin="round"/>
<path d="M75.7917 121.999C72.6209 121.262 70.6481 118.094 71.3847 114.923L77.3945 90.0611C78.1314 86.8903 81.299 84.9174 84.4698 85.6543C87.6406 86.3913 89.6134 89.5588 88.8768 92.7296L82.867 117.592C82.1301 120.763 78.9625 122.736 75.7917 121.999Z" fill="white" stroke="#262525" stroke-width="0.646013" stroke-miterlimit="10" stroke-linecap="round" stroke-linejoin="round"/>
<path d="M89.0622 97.7549L90.1155 92.6305C90.8901 88.8627 88.4634 85.1801 84.6953 84.4058C80.9271 83.6311 77.2446 86.0579 76.4702 89.826L75.3281 95.3828L89.0622 97.7549Z" fill="white"/>
<path d="M83.0732 84.0195C83.0732 84.0195 82.4411 84.3115 82.3897 84.318C79.5263 84.6923 77.0842 86.8366 76.4702 89.8238L75.3281 95.3806L89.0622 97.753L90.1155 92.6287" stroke="#262525" stroke-width="0.646013" stroke-miterlimit="10" stroke-linecap="round" stroke-linejoin="round"/>
<path d="M77.0496 128.782C73.7948 128.782 71.1562 130.022 71.1562 126.767V116.819C71.1562 113.564 73.7948 110.926 77.0496 110.926C80.3045 110.926 82.943 113.564 82.943 116.819L82.4891 126.078C82.4891 129.333 77.0496 128.782 77.0496 128.782Z" fill="white"/>
<path d="M83.079 116.729L82.9264 117.36L82.4891 126.08C82.4891 129.335 77.0496 128.784 77.0496 128.784C73.7948 128.784 71.1562 130.024 71.1562 126.769V116.821C71.1562 116.452 71.1904 116.09 71.2555 115.739C71.2555 115.739 71.2763 115.386 71.5445 114.277" stroke="#262525" stroke-width="0.646013" stroke-miterlimit="10" stroke-linecap="round" stroke-linejoin="round"/>
<path d="M74.5117 115.541C74.5117 115.541 77.6243 114.217 80.1315 115.821" stroke="#262525" stroke-width="0.646013" stroke-miterlimit="10" stroke-linecap="round" stroke-linejoin="round"/>
<path d="M71.7119 130.782H71.5161C70.5689 130.782 69.8008 130.015 69.8008 129.067C69.8008 128.066 70.6126 127.254 71.6139 127.254C72.6151 127.254 73.4269 128.066 73.4269 129.067C73.4269 130.014 72.6591 130.782 71.7119 130.782Z" fill="white" stroke="#262525" stroke-width="0.646013" stroke-miterlimit="10" stroke-linecap="round" stroke-linejoin="round"/>
<path d="M75.2428 131.164C74.2415 131.164 73.4297 130.353 73.4297 129.351V127.801C73.4297 126.8 74.2415 125.988 75.2428 125.988C76.2441 125.988 77.0558 126.8 77.0558 127.801V129.351C77.0558 130.353 76.2441 131.164 75.2428 131.164Z" fill="white" stroke="#262525" stroke-width="0.646013" stroke-miterlimit="10" stroke-linecap="round" stroke-linejoin="round"/>
<path d="M78.8599 131.853C77.8587 131.853 77.0469 131.041 77.0469 130.04V126.821C77.0469 125.82 77.8587 125.008 78.8599 125.008C79.8612 125.008 80.673 125.82 80.673 126.821V130.04C80.6733 131.041 79.8615 131.853 78.8599 131.853Z" fill="white" stroke="#262525" stroke-width="0.646013" stroke-miterlimit="10" stroke-linecap="round" stroke-linejoin="round"/>
<path d="M82.4928 131.164C81.4915 131.164 80.6797 130.353 80.6797 129.351V127.801C80.6797 126.8 81.4915 125.988 82.4928 125.988C83.4941 125.988 84.3058 126.8 84.3058 127.801V129.351C84.3058 130.353 83.4941 131.164 82.4928 131.164Z" fill="white" stroke="#262525" stroke-width="0.646013" stroke-miterlimit="10" stroke-linecap="round" stroke-linejoin="round"/>
<path d="M151.98 62.1003L152.564 61.9753C156.284 61.1798 158.655 57.5189 157.86 53.7989L156.161 47.5859L145.778 49.7947L146.648 52.6782L146.292 52.3545L145.398 49.876L142.457 50.5049L143.804 56.8046C144.6 60.5249 148.26 62.8958 151.98 62.1003Z" fill="white"/>
<path d="M156.161 47.5859L157.859 53.7989C158.357 56.1241 157.617 58.4258 156.084 60.0196L155.341 60.687L155.199 61.083" stroke="#262525" stroke-width="0.646013" stroke-miterlimit="10" stroke-linecap="round" stroke-linejoin="round"/>
<path d="M143.484 55.3242L143.801 56.804C144.291 59.0962 145.869 60.8763 147.879 61.719" stroke="#262525" stroke-width="0.646013" stroke-miterlimit="10" stroke-linecap="round" stroke-linejoin="round"/>
<path d="M145.774 49.7969L146.645 52.6804L146.288 52.3567L145.395 49.878" stroke="#262525" stroke-width="0.646013" stroke-miterlimit="10" stroke-linecap="round" stroke-linejoin="round"/>
<path d="M143.586 55.7959L147.07 54.5392L144.626 47.8257C144.279 46.8636 143.217 46.3649 142.255 46.7119C141.293 47.0588 140.795 48.1204 141.142 49.0825L143.586 55.7959Z" fill="white"/>
<path d="M146.282 52.3537L144.626 47.8257C144.279 46.8636 143.217 46.3649 142.255 46.7119C141.293 47.0588 140.795 48.1204 141.142 49.0825L143.586 55.7959" stroke="#262525" stroke-width="0.646013" stroke-miterlimit="10" stroke-linecap="round" stroke-linejoin="round"/>
<path d="M152.945 48.5609L156.139 47.5771L154.501 40.8993C154.205 39.92 153.172 39.366 152.192 39.6615C151.213 39.9574 150.659 40.9907 150.955 41.9701L152.945 48.5609Z" fill="white"/>
<path d="M156.139 47.5771L154.501 40.8993C154.205 39.92 153.172 39.366 152.192 39.6615C151.213 39.9574 150.659 40.9907 150.955 41.9701L152.727 47.8388" stroke="#262525" stroke-width="0.646013" stroke-miterlimit="10" stroke-linecap="round" stroke-linejoin="round"/>
<path d="M150.644 49.2524L154.19 48.1816L151.282 38.5516C150.986 37.5723 149.953 37.0183 148.973 37.3139C147.994 37.6097 147.44 38.6431 147.736 39.6224L150.644 49.2524Z" fill="white"/>
<path d="M154.19 48.1816L151.282 38.5516C150.986 37.5723 149.953 37.0183 148.973 37.3139C147.994 37.6097 147.44 38.6431 147.736 39.6224L150.399 48.4415" stroke="#262525" stroke-width="0.646013" stroke-miterlimit="10" stroke-linecap="round" stroke-linejoin="round"/>
<path d="M148.483 49.9091L152.029 48.8384L148.712 37.8524C148.416 36.8731 147.382 36.3191 146.403 36.6147C145.424 36.9102 144.87 37.9439 145.165 38.9232L148.483 49.9091Z" fill="white"/>
<path d="M152.029 48.8383L148.712 37.8524C148.416 36.8731 147.382 36.3191 146.403 36.6147C145.424 36.9102 144.87 37.9439 145.165 38.9232L148.285 49.2527" stroke="#262525" stroke-width="0.646013" stroke-miterlimit="10" stroke-linecap="round" stroke-linejoin="round"/>
<path d="M146.035 50.6509L149.581 49.5801L146.673 39.95C146.377 38.9707 145.343 38.4168 144.364 38.7123C143.385 39.0082 142.831 40.0415 143.126 41.0208L146.035 50.6509Z" fill="white"/>
<path d="M149.581 49.5801L146.673 39.95C146.377 38.9707 145.343 38.4168 144.364 38.7123C143.385 39.0082 142.831 40.0415 143.126 41.0208L146.646 52.6754L146.289 52.3516" stroke="#262525" stroke-width="0.646013" stroke-miterlimit="10" stroke-linecap="round" stroke-linejoin="round"/>
<path d="M146.641 52.6758L148.07 53.5006C149.905 54.559 151.41 56.1059 152.418 57.9686" stroke="#262525" stroke-width="0.646013" stroke-miterlimit="10" stroke-linecap="round" stroke-linejoin="round"/>
</svg>
