<svg width="200" height="141" viewBox="0 0 200 141" fill="none" xmlns="http://www.w3.org/2000/svg">
<g clip-path="url(#clip0_796_59221)">
<path d="M199.017 2.21484H2.58203V138.779H199.017V2.21484Z" fill="white"/>
<path d="M98.0933 8.57409C100.425 7.63506 103.165 7.83673 105.365 9.04173C105.649 9.21313 105.985 9.17645 106.302 9.15885C117.731 9.11603 129.161 9.15271 140.592 9.13991C140.604 44.1486 140.593 79.1574 140.598 114.166C129.145 114.239 117.689 114.204 106.236 114.182C106.132 115.754 106.089 117.372 106.597 118.886C107.383 120.953 106.588 123.15 106.651 125.276C106.632 126.667 104.682 126.846 104.842 128.225C104.95 128.783 104.369 129.32 104.726 129.829C104.279 130.482 104.997 131.456 104.265 132.006C103.223 132.647 101.933 132.527 100.762 132.601C99.5906 132.554 98.3452 132.643 97.2587 132.132C96.6184 131.579 96.7457 130.649 96.5981 129.896C90.4632 130.08 84.3269 130.521 78.1893 130.438C84.3383 130.2 90.4834 129.922 96.6334 129.746C96.5919 129.137 95.896 129.292 95.4725 129.251C90.8413 129.025 86.2189 128.652 81.5853 128.434C86.5505 128.396 91.5183 128.859 96.472 129.209C96.6322 127.273 96.9257 125.334 97.4627 123.454C97.5194 120.19 96.1153 117.133 94.9291 114.16C83.2605 114.252 71.5878 114.191 59.918 114.186C59.9293 79.1751 59.9141 44.1638 59.9268 9.15391C72.1526 9.1211 84.38 9.15138 96.6056 9.14137C97.1504 9.11483 97.5964 8.76069 98.0933 8.57409ZM96.0638 10.2227C93.9814 11.9622 92.5657 14.8313 93.1368 17.5654C93.3283 16.7131 93.4419 15.8422 93.723 15.0115C94.85 13.1749 96.3084 11.2199 98.5646 10.688C103.023 9.51565 108.002 12.8183 109.051 17.2076C109.453 16.0616 109.02 14.7961 108.444 13.7838C108.543 13.8419 108.741 13.9566 108.841 14.0145C108.3 12.5964 107.598 11.1568 106.359 10.219C103.477 7.81019 98.9516 7.8366 96.0638 10.2227ZM60.2091 9.44256C60.1979 44.2647 60.1739 79.0869 60.218 113.909C71.7581 113.9 83.2997 113.895 94.8397 113.928C94.6116 113.242 94.3619 112.564 94.1415 111.877C83.5114 111.818 72.8788 111.864 62.2475 111.853C62.2513 78.4036 62.2211 44.9529 62.2613 11.5035C72.8989 11.4833 83.5416 11.5463 94.1767 11.4756C94.9155 10.7647 95.591 9.96809 96.462 9.39827C84.3785 9.47657 72.2926 9.40481 60.2091 9.44256ZM106.052 9.41228C106.841 9.9985 107.581 10.6553 108.117 11.4883C118.18 11.5224 128.244 11.4996 138.307 11.501C138.302 44.9504 138.319 78.3997 138.302 111.849C127.731 111.857 117.16 111.841 106.589 111.858C106.5 112.541 106.333 113.217 106.316 113.909C117.644 113.905 128.975 113.907 140.303 113.908C140.356 79.0805 140.356 44.2521 140.307 9.42495C128.889 9.42615 117.469 9.45896 106.052 9.41228ZM62.5134 11.7859C62.526 45.0487 62.5298 78.3129 62.5159 111.574C73.0225 111.616 83.529 111.583 94.0366 111.595C93.8097 110.906 93.6447 110.2 93.4113 109.516C91.092 109.392 89.4634 107.509 87.2537 107.085C84.3658 106.179 82.659 103.381 81.4237 100.803C80.907 99.9599 81.5711 99.1546 81.8902 98.3905C80.2628 97.5598 78.2913 96.7128 77.6938 94.8219C77.6358 93.516 78.2497 92.2719 78.7287 91.0856C78.7653 92.5379 77.3332 94.3064 78.6795 95.4875C79.6388 96.5829 81.0228 97.1047 82.1926 97.9151C84.7085 92.8681 86.1129 87.2336 85.6842 81.5763C86.5097 87.7603 84.6695 93.9548 81.9669 99.4633C81.648 100.076 82.2088 100.661 82.432 101.208C83.7442 103.784 85.7624 106.418 88.8721 106.694C89.3775 103.239 89.7028 99.7583 90.0672 96.2853H90.207C90.0495 99.8163 89.5957 103.342 89.3487 106.856C90.4315 107.711 91.7109 108.341 93.0734 108.587C92.2945 105.141 92.0511 101.611 91.7675 98.0983C91.02 90.564 88.2595 83.4621 86.3737 76.1838C85.5568 72.9127 85.5152 69.5283 85.3438 66.1828C83.6143 67.6184 84.0065 70.0286 83.738 71.9926C82.8379 73.9111 81.9858 75.9114 81.9758 78.0771C81.7603 82.2331 81.2864 86.7029 78.8521 90.1958C80.2602 87.1012 80.9976 83.7305 81.1174 80.3346C81.266 77.7215 81.6429 75.0467 82.935 72.7261C83.3748 72.0225 83.4883 71.192 83.4189 70.3776C83.3533 68.6305 83.9925 66.8178 85.422 65.7463C85.4169 63.5404 85.1927 61.2829 85.1005 59.058C84.6998 58.502 84.1135 57.9236 84.3984 57.1646C85.0186 55.9784 83.6069 54.8868 84.0393 53.6566C84.3846 52.8953 85.0237 52.3154 85.4032 51.5692C83.3698 49.3771 85.3791 46.4855 85.9503 44.108C86.1041 40.7752 86.152 37.354 87.2171 34.1512C87.4023 33.5045 88.0074 33.0886 88.6691 33.0684C89.7822 33.0595 90.6582 32.2855 91.4776 31.6301C90.8171 31.5759 90.0646 31.47 89.6775 30.856C90.2712 31.2254 91.3528 30.9745 91.1953 30.13C90.5562 29.3473 89.3726 29.2514 88.7574 28.4156C87.6065 27.0379 88.5796 24.8609 90.0407 24.1386C89.0247 24.1803 87.894 23.3181 88.0212 22.2276C88.0754 21.4813 88.6653 20.8927 89.3423 20.6432C89.0171 20.9242 88.8997 21.5634 89.4455 21.6515C89.8905 21.5004 90.1236 21.0137 90.5498 20.8083C90.2182 21.4928 90.7301 22.4635 91.5658 22.229C93.2687 22.0474 93.7125 19.8882 93.0545 18.5633C92.0082 16.3247 92.7407 13.6887 94.0908 11.7502C83.5656 11.7972 73.0389 11.7266 62.5134 11.7859ZM108.31 11.7683C109.148 13.1913 109.619 14.82 109.671 16.4701C110.793 16.7132 112.144 17.4986 112.013 18.8246C112.095 19.8292 110.919 20.5327 111.264 21.5512C111.755 22.3314 113.217 22.0742 113.366 21.1227C114.79 21.9128 114.388 24.1957 112.683 24.2373C113.753 25.0303 114.747 26.3324 114.365 27.7391C113.973 29.0187 112.588 29.4459 111.566 30.0913C111.669 30.6536 112.314 30.7217 112.766 30.8515C112.567 31.3468 112.188 31.7313 111.74 32.0098C113.564 31.8396 115.695 32.649 116.129 34.613C117.232 39.2706 116.409 44.4804 119.045 48.7095C119.713 49.6701 119.003 50.691 117.989 50.9318C118.596 51.5986 118.893 52.4872 119.574 53.0922C120.389 53.9243 120.086 55.2667 119.313 56.0155C118.698 56.5059 119.052 57.4436 118.461 57.9492C118.103 58.3261 117.416 58.316 117.248 58.8719C116.624 60.3958 115.799 61.8291 115.182 63.353C114.862 65.375 115.316 67.4384 115.231 69.4552C114.05 71.3573 114.94 73.6263 115.128 75.6723C115.063 76.5721 116.392 76.992 115.949 77.9613C116.627 78.4076 116.661 79.2357 116.01 79.7299C116.203 81.1844 116.289 82.653 116.534 84.1013C117.076 84.1404 118.017 83.9727 118.059 84.7543C118.779 88.8875 119.545 93.0119 120.258 97.1451C120.466 98.0995 120.284 99.249 121.128 99.9398C122.355 100.902 121.521 102.616 120.765 103.608C120.116 104.237 120.979 105.627 119.873 105.878C117.592 106.438 115.327 107.126 113.021 107.542C111.928 106.966 111.149 105.923 110.08 105.305C109.454 105.18 108.664 105.572 108.214 104.957C107.685 107.163 107.08 109.352 106.67 111.586C117.126 111.597 127.583 111.606 138.039 111.581C138.032 78.3144 138.049 45.0476 138.029 11.7811C128.123 11.7442 118.216 11.7707 108.31 11.7683ZM102.158 13.2544C102.628 13.1472 103.11 13.0439 103.594 13.1284C103.242 13.7045 102.455 13.2683 101.997 13.683C103.716 13.6126 106.156 14.5491 106.118 16.5633C106.251 16.0478 106.239 15.5146 106.206 14.9866C106.587 15.3559 106.754 15.8916 106.567 16.3996C106.664 16.2672 106.762 16.1374 106.866 16.01C106.923 16.7538 106.423 17.3539 106.088 17.9689C106.69 17.5189 106.743 16.6316 107.387 16.2484C107.367 16.9252 106.934 17.4698 106.582 18.0119C107.346 17.843 107.441 16.8042 108.166 16.5409C108.213 16.7134 108.262 16.8862 108.313 17.0576C108.119 14.7685 106.104 12.4353 103.662 12.6999C103.123 12.7174 102.354 12.585 102.158 13.2544ZM99.3096 14.8641C98.0566 14.322 96.297 15.0519 96.0134 16.4499C95.7662 17.544 95.1524 18.6256 95.4233 19.7739C95.7864 20.9122 95.8142 22.1197 96.0789 23.2794C96.7181 25.2357 98.0642 27.0572 99.9777 27.912C101.103 28.3367 102.148 27.5022 102.968 26.8278C104.264 25.8118 104.992 24.2639 105.379 22.697C106.817 22.9026 106.592 20.7344 106.637 19.789C106.375 19.9806 106.25 20.2806 106.139 20.573C106.061 20.587 105.906 20.6134 105.828 20.6271C106.379 20.7016 106.492 21.5688 106.143 21.8966C106.12 21.5663 106.066 21.2335 105.867 20.9601C105.675 21.4605 105.694 22.024 105.427 22.4967C105.359 21.0911 105.988 19.6881 105.567 18.2916C105.52 17.9072 105.097 17.539 105.388 17.1633C105.235 16.7334 105.141 16.2657 104.794 15.9407C104.849 15.918 104.958 15.8738 105.012 15.8524C104.535 15.0834 103.67 14.9271 102.819 15.0407C103.052 14.8741 103.293 14.7193 103.54 14.5717C102.07 14.2061 100.737 15.4123 99.3096 14.8641ZM94.5257 19.5759C94.7023 20.6726 94.5043 22.3327 95.7043 22.8659C95.6464 22.2595 95.6299 21.6193 95.3475 21.0658C95.2834 21.2726 95.2178 21.478 95.1345 21.6785C94.691 20.9662 95.4108 20.0272 94.5257 19.5759ZM101.268 29.0942C100.101 28.9945 99.2895 28.0189 98.3804 27.3863C98.5002 28.5207 98.6151 29.7056 98.2609 30.8111C98.0075 31.6141 97.3142 32.1509 96.9436 32.8859C99.7699 33.8729 102.956 33.7645 105.674 32.49C104.088 31.1715 104.059 29.0135 103.851 27.1291C103.043 27.8261 102.447 29.0261 101.268 29.0942ZM104.268 28.305C104.47 29.7131 105.481 30.7871 106.116 32.0097C107.676 34.7401 108.068 37.928 108.335 41.0062C108.636 45.0841 108.476 49.1807 108.796 53.2572C109.551 48.4774 111.693 44.0591 112.843 39.3864C111.806 38.3881 110.262 38.0403 109.144 37.101C109.334 36.4455 109.362 35.7623 109.324 35.0842C111.176 34.6089 113.154 34.9039 115.051 34.633C113.382 35.33 111.428 35.1686 109.646 35.4876C109.608 35.9615 109.481 36.4305 109.511 36.9081C110.62 37.6431 111.837 38.2102 112.985 38.8795C113.536 39.2211 113.344 39.9459 113.201 40.4565C111.941 44.6214 109.984 48.5755 109.139 52.8652C108.647 56.1262 110.031 59.2926 111.833 61.9323C112.367 60.47 112.748 58.941 112.956 57.398C111.891 52.9535 110.911 48.1194 112.253 43.6431C111.79 47.3492 112.181 51.0955 112.896 54.7346C114.011 51.8303 118.341 53.6078 118.733 56.1225C119.203 55.4266 119.927 54.5656 119.467 53.6883C118.926 52.9131 117.959 52.6082 117.302 51.95C116.333 51.0538 115.072 50.0984 113.673 50.3844C112.713 51.0552 113.132 52.3257 112.752 53.2421C112.371 52.1417 112.986 51.0816 113.315 50.1047C112.076 48.5063 114.025 46.8828 113.618 45.1521C114.57 46.7718 112.386 48.5391 113.662 50.0707C115.543 49.744 116.966 51.1698 118.356 52.1643C118.168 51.6487 117.416 51.3601 117.542 50.76C118.039 50.3465 119.094 50.1084 118.738 49.2449C117.025 45.5553 114.849 42.036 113.763 38.083C113.584 37.3507 113.47 36.5136 113.86 35.8292C113.947 39.0384 115.734 41.8947 116.908 44.8104C116.546 42.4178 116.24 40.0116 116.108 37.5914C115.951 36.2829 115.926 34.8812 115.229 33.719C114.655 32.79 113.487 32.4597 112.451 32.5682C113.343 33.1657 114.426 33.5828 115.049 34.5005C112.853 33.424 110.844 31.9039 108.431 31.3051C108.68 31.6605 108.938 32.0198 109.065 32.4421C107.745 30.8148 106.313 29.0073 104.268 28.305ZM94.6531 32.8229C94.7729 31.8914 95.1687 31.0278 95.4561 30.1418C92.7699 30.9699 90.7328 32.9955 88.4098 34.4514C88.6984 34.0014 89.1119 33.656 89.5178 33.3156C88.8485 33.4393 87.9131 33.4353 87.709 34.2548C86.8317 36.9284 86.6512 39.7796 86.524 42.573C87.1581 41.1083 87.361 39.4519 88.1149 38.0603C87.5577 41.1409 86.4749 44.0981 85.5281 47.0768C85.1046 48.4432 84.3949 50.1021 85.5684 51.3021C86.2983 50.0541 87.5172 48.9097 89.0424 48.8957C89.6613 48.8542 90.1453 49.2965 90.4264 49.8034C90.599 48.4571 89.9449 47.1939 90.0369 45.8516L90.1945 45.8566C90.1226 47.1044 91.0276 48.1899 90.7944 49.4428C90.6105 50.3328 90.8953 51.2188 90.8437 52.115C91.247 50.1524 91.4776 48.1558 91.4916 46.1514C91.8458 47.6024 91.6478 49.12 91.5421 50.5922C91.1603 54.9563 88.8169 58.9886 89.1722 63.446C90.9042 59.9166 93.1265 56.5772 94.2408 52.7769C94.9204 50.0717 94.4489 47.2697 94.3077 44.5305C93.9685 40.4955 94.3329 36.2551 96.2992 32.6411C96.9762 31.2747 98.0716 30.0144 98.0602 28.4095C95.7674 28.6128 95.552 31.2232 94.6531 32.8229ZM110.846 31.6379C111.315 31.8044 111.745 31.4992 112.144 31.2938C111.703 31.3656 111.24 31.4098 110.846 31.6379ZM96.7117 33.0889C96.6172 33.2754 96.5226 33.4633 96.4355 33.6548C99.5441 34.8662 103.159 34.7275 106.208 33.4003C106.147 33.2439 106.084 33.0864 106.023 32.9314C103.087 34.0997 99.6612 34.3228 96.7117 33.0889ZM96.3234 33.8615C95.6351 35.2556 95.2128 36.7683 94.9482 38.296C95.7045 38.117 96.423 37.7806 97.2032 37.7011C96.3939 38.1511 95.4674 38.5507 95.0299 39.4268C94.1753 41.2546 94.7022 43.3509 94.8964 45.2707C94.9318 46.2274 95.8745 46.6584 96.6422 46.9624C95.7397 48.0313 94.6998 49.2791 95.0275 50.7868C95.5205 51.4827 96.3762 50.715 96.844 50.3569C96.5641 51.1283 95.7146 51.3768 94.9973 51.5556C94.9419 52.5188 95.0882 53.5272 94.5032 54.3704C95.92 54.4586 97.4881 54.5419 98.7286 53.7275C99.3221 53.3619 99.6965 52.7506 100.25 52.3398C99.2176 54.4738 96.5868 54.8092 94.4728 54.6226C94.3279 54.9075 94.198 55.2 94.077 55.4949C95.3891 55.4103 96.6107 55.9651 97.8524 56.2915C100.232 56.9684 102.726 56.9356 105.172 57.0818C102.313 57.078 99.4103 56.9482 96.6599 56.0771C95.7271 55.922 94.2914 55.2515 93.6585 56.2309C97.2889 57.4398 101.102 58.0964 104.928 58.1532C106.457 58.2339 107.993 58.3473 109.477 58.752C109.356 57.2457 107.57 57.6719 106.573 57.2444C107.406 57.1978 108.232 57.3567 109.041 57.5369C108.532 56.0974 108.542 54.2999 107 53.5083C107.441 53.6003 107.879 53.7138 108.329 53.7603C108.216 52.5011 108.093 51.1145 106.883 50.3973C108.273 50.1503 108.47 48.7575 108.016 47.6165C107.306 46.9321 106.319 46.6699 105.479 46.1909C106.382 46.1594 107.296 46.2237 108.185 46.0119C108.059 43.4013 108.679 40.0572 106.207 38.3125C106.695 38.4651 107.185 38.6314 107.703 38.6264C107.465 36.8994 107.09 35.175 106.39 33.5717C103.248 34.977 99.5414 35.0955 96.3234 33.8615ZM86.9691 50.0505C85.9668 50.9782 85.5572 52.3573 84.5628 53.2988C83.9136 53.8649 84.3762 54.6828 84.5666 55.3446C85.0948 53.2193 88.3558 52.8941 89.552 54.5984C88.4377 54.258 87.3044 53.4641 86.1033 53.9594C85.0115 54.282 84.4304 55.5565 85.0531 56.5548C84.6144 57.0779 84.5249 57.7951 84.9699 58.346C85.0936 57.3664 85.0684 55.9183 86.3211 55.7127C85.9467 56.1489 85.5497 56.5862 85.4186 57.1661C86.311 56.2245 87.68 55.8954 88.9356 56.1058C88.1262 55.3346 86.9728 54.9802 85.8864 55.3105C87.041 54.4534 88.9596 54.7231 89.6829 56.0316C89.9174 55.1417 90.6789 53.9782 89.8369 53.1955C88.7791 52.2779 87.2944 52.6787 86.0565 52.8841C87.3284 51.9967 89.2997 51.882 90.3877 53.1286C90.4544 52.5994 90.5529 52.0685 90.5099 51.5342C89.5003 51.2643 88.483 51.5895 87.486 51.7446C88.2989 51.0816 89.6428 50.4476 90.5402 51.3135C90.3851 50.5913 90.3877 49.6357 89.6086 49.2739C88.6693 48.979 87.6775 49.4416 86.9691 50.0505ZM114.307 53.928C113.424 54.4031 113.081 55.4091 112.989 56.3493C114.288 55.4619 116.064 55.8413 117.212 56.8094C116.938 55.7052 115.868 55.0082 114.751 55.0875C116.546 54.4282 118.18 56.4779 117.485 58.1632C120.011 56.628 116.578 52.3258 114.307 53.928ZM113.808 56.9544C113.439 58.6397 113.148 60.3566 112.553 61.9865C111.843 63.2432 113.347 64.1785 113.836 65.221C114.726 62.8815 116.106 60.7725 117.096 58.481C117.955 56.6708 114.78 55.7947 113.808 56.9544ZM93.4253 56.7527C92.2229 58.7493 91.072 60.7851 89.9248 62.8182C88.6707 64.636 88.547 67.4937 86.0801 68.2159C85.9831 74.8136 88.5533 80.9725 90.2249 87.2425C91.5205 91.8636 92.3903 96.6094 92.723 101.401C93.0068 106.008 93.8336 110.657 95.7509 114.873C97.4526 114.432 99.2136 114.346 100.964 114.309C100.867 113.087 100.717 111.865 100.749 110.638C98.7396 110.758 96.7227 110.866 94.7224 111.116C95.7849 110.73 96.9408 110.628 98.0652 110.559C98.0741 110.46 98.0942 110.262 98.1043 110.164C98.1712 110.274 98.2368 110.386 98.3035 110.499C99.1141 110.454 99.9321 110.481 100.734 110.328C100.407 104.484 100.251 98.624 99.5842 92.8041C98.7044 86.0149 98.7926 79.1298 99.5528 72.3381C98.7965 71.6008 97.6116 71.3145 96.8237 70.5531C97.5952 70.6768 98.3564 70.8923 99.1443 70.8946C99.0863 67.6161 99.3636 64.3426 99.6358 61.0776C98.0602 60.9955 96.5085 60.6918 94.9707 60.3516C94.4286 62.5852 94.2736 64.9463 93.6471 67.1282C93.8526 64.8152 94.3379 62.536 94.6481 60.2357C93.753 59.9357 92.7257 59.8914 91.9327 59.3759C92.8631 59.4931 93.7505 59.8423 94.6858 59.9369C94.8851 59.0193 94.9934 58.084 95.2164 57.1726C94.6291 57.0439 93.9989 56.73 93.4253 56.7527ZM85.5005 58.2742C85.6782 61.476 86.0199 64.6714 86.156 67.8783C87.8538 67.0968 88.5952 65.1001 88.5634 63.3327C88.5863 61.6325 88.9026 59.9583 89.025 58.2692C88.8245 56.4463 85.5736 56.3607 85.5005 58.2742ZM95.5255 57.2606C95.412 58.1858 95.1925 59.0948 95.0401 60.0137C96.5817 60.2381 98.1373 60.4739 99.7003 60.4044C99.7382 59.6684 99.8491 58.9397 99.9537 58.2125C98.4537 58.0221 96.9839 57.6516 95.5255 57.2606ZM100.293 58.2678C100.206 58.9902 100.116 59.7124 100.011 60.4321C101.527 60.5155 103.053 60.4561 104.557 60.2493C104.5 59.7224 104.398 59.2031 104.277 58.6901C102.941 58.6498 101.616 58.4456 100.293 58.2678ZM104.658 58.7407C104.742 59.2145 104.839 59.6873 104.949 60.1576C105.189 60.1536 105.427 60.1514 105.668 60.155C105.443 60.2409 105.215 60.315 104.987 60.3856C105.368 62.5199 105.892 64.6285 106.255 66.7639C105.467 64.7709 105.208 62.5651 104.653 60.4827C103.104 60.8192 101.526 61.0046 99.9448 61.0814C99.5994 64.3551 99.3184 67.635 99.2301 70.925C101.652 71.1179 104.056 70.6778 106.456 70.4523C104.503 71.172 102.16 71.1113 100.476 72.4614C99.9827 75.8624 99.6487 79.2935 99.5315 82.7311C99.3084 90.5312 101 98.2293 101.035 106.022C102.644 107.431 105.375 107.62 106.952 106.061C108.123 104.97 107.958 103.23 108.168 101.778C108.44 100.185 107.227 98.9313 106.792 97.4931C106.002 95.4246 106.331 93.1757 106.674 91.0517C107.623 85.3203 110.472 80.1784 112.274 74.709C113.243 71.8123 113.502 68.7479 113.86 65.7364C112.516 63.7537 110.927 61.9359 109.459 60.0402C108.436 58.4243 106.26 59.0305 104.658 58.7407ZM113.062 73.8393C112.507 75.0228 113.615 76.0238 113.771 77.1619C113.834 77.8779 114.431 78.4088 115.133 78.4716C114.993 75.4186 113.56 72.2017 114.872 69.2534C114.8 67.7684 114.689 66.2823 114.696 64.791C113.802 67.7244 114.005 70.8983 113.062 73.8393ZM112.54 75.4201C112.487 75.6217 112.437 75.8246 112.384 76.0263C112.526 76.0276 112.67 76.029 112.814 76.0327C112.721 75.8283 112.628 75.6243 112.54 75.4201ZM115.21 76.6377C115.26 77.0321 115.306 77.4318 115.423 77.815C116.149 77.7241 115.502 76.9098 115.21 76.6377ZM113.16 78.0292C113.226 78.0243 113.358 78.0143 113.424 78.0077C113.497 77.7658 113.601 77.5174 113.522 77.2629C113.371 77.5023 113.26 77.7646 113.16 78.0292ZM111.893 83.4217C111.178 83.491 110.449 83.5328 109.771 83.7974C109.099 88.3643 108.774 92.9918 108.63 97.6053C108.641 98.5531 108.524 99.5693 109.066 100.407C109.672 101.46 109.191 102.743 109.564 103.825C109.932 98.6289 110.114 93.4166 110.556 88.2245C110.641 93.5212 109.844 98.8634 110.078 104.159C110.023 104.172 109.912 104.197 109.856 104.211C110.865 105.015 111.853 105.849 112.913 106.584C112.443 99.5466 113.593 92.5621 113.991 85.5509C112.647 85.019 111.112 84.8248 109.912 84.0282C111.304 84.3559 112.638 84.8865 114.016 85.2547C113.973 84.506 114.592 84.129 115.274 84.1605C114.19 83.8465 113.081 83.5995 111.962 83.4596C112.727 81.7037 112.461 79.5898 112.557 77.6839C111.967 79.4764 111.98 81.5233 111.893 83.4217ZM109.451 83.4596C110.077 83.2164 110.744 83.1093 111.411 83.0386C111.649 81.3495 111.59 79.6428 111.687 77.9473C110.949 79.7877 110.269 81.6533 109.451 83.4596ZM113.021 78.4768C112.748 79.2495 113.309 79.75 113.99 79.9529C113.931 79.7133 113.873 79.4737 113.816 79.2367C114.502 79.1523 113.903 80.5037 114.754 80.244C114.736 79.7285 114.583 79.1888 114.886 78.7073C114.202 78.4579 113.818 79.131 113.459 79.571C113.36 78.9949 113.787 78.6092 114.258 78.3924C113.851 78.1603 113.415 78.2838 113.021 78.4768ZM115.426 78.1554C115.654 78.5347 115.851 78.933 115.975 79.3602C116.6 78.9191 116.041 78.1704 115.426 78.1554ZM115.182 79.1272C115.322 80.873 115.541 82.6175 115.666 84.367C115.826 84.367 115.988 84.3684 116.149 84.3696C115.991 82.7713 115.872 81.1641 115.637 79.5747C115.622 79.3188 115.378 78.6205 115.182 79.1272ZM113.265 79.8583C113.543 80.9979 113.527 82.1815 113.779 83.3272C114.271 83.4673 114.767 83.5895 115.268 83.6954C115.22 82.6717 115.042 81.6609 114.956 80.6411C114.339 80.5163 113.75 80.2655 113.265 79.8583ZM112.87 79.9666C112.874 81.033 112.714 82.0906 112.666 83.1557C112.894 83.1909 113.123 83.2239 113.352 83.2553C113.13 82.1699 113.058 81.0608 112.969 79.959L112.87 79.9666ZM114.524 84.7617C113.933 89.2707 113.799 93.8313 113.268 98.3504C112.909 101.126 113.279 103.911 113.291 106.691C115.557 106.347 117.776 105.703 120.02 105.224C120.158 102.515 120.299 99.7785 119.802 97.0934C119.058 92.9578 118.347 88.8155 117.615 84.6787C116.584 84.7012 115.554 84.7491 114.524 84.7617ZM120.52 99.8226C120.577 101.018 120.591 102.219 120.456 103.41C121.24 102.368 121.852 100.713 120.52 99.8226ZM101.021 106.585C101.274 110.734 101.058 114.938 101.959 119.023C103.4 118.908 104.916 118.736 106.264 119.409C105.97 118.47 105.793 117.499 105.736 116.517C104.484 116.509 103.059 117.551 101.945 116.56C103.225 116.9 104.474 116.436 105.731 116.238C105.726 112.768 106.699 109.406 107.465 106.052C105.926 107.997 102.911 108.029 101.021 106.585ZM95.7485 115.036C96.8868 118.059 98.4574 121.346 97.6116 124.628C98.4095 123.225 100.301 122.599 101.759 123.322C102.678 123.674 103.275 124.481 103.963 125.138C103.547 124.196 103.27 123.155 102.625 122.339C101.757 121.717 100.604 121.739 99.6081 121.999C100.434 121.366 101.58 121.468 102.504 121.809C102.069 121.035 101.904 120.155 101.597 119.333C100.689 118.855 99.6623 119.414 98.7447 119.61C99.5387 119.024 100.556 118.826 101.528 118.902C101.243 117.495 101.033 116.067 100.99 114.631C99.234 114.585 97.4742 114.713 95.7485 115.036ZM102.136 119.463C102.387 120.305 102.689 121.132 103.056 121.931C104.217 121.81 105.447 121.945 106.421 122.638C106.205 121.66 107.126 119.923 105.76 119.585C104.596 119.128 103.337 119.285 102.136 119.463ZM103.187 122.205C103.735 123.132 103.995 124.199 104.504 125.129C104.508 124.844 104.497 124.562 104.478 124.282C104.57 124.23 104.751 124.128 104.843 124.078C104.823 124.387 104.808 124.697 104.806 125.008C105.649 124.643 105.738 123.527 105.946 122.74C105.098 122.307 104.134 122.143 103.187 122.205ZM98.1034 124.327C99.5668 123.47 101.405 123.693 102.844 124.486C101.676 123.025 99.3397 122.866 98.1034 124.327ZM106.277 123.829C105.932 124.562 105.545 125.546 104.588 125.56C104.735 125.945 104.87 126.335 105.01 126.725C106.057 126.194 106.545 124.951 106.277 123.829ZM98.0491 124.777C97.1037 125.367 97.1063 126.6 97.1126 127.586C99.0952 125.476 102.486 125.969 104.433 127.868C104.508 127.195 104.469 126.437 103.947 125.939C102.556 124.299 99.9234 123.458 98.0491 124.777ZM98.5696 126.976C99.8415 126.822 101.209 126.621 102.404 127.221C102.781 127.37 102.49 127.828 102.491 128.118C102.858 128.017 103.227 127.92 103.59 127.804C102.253 126.528 100.249 126.07 98.5696 126.976ZM99.8654 127.107C99.8277 127.486 99.762 127.863 99.6815 128.238C100.152 128.24 100.623 128.231 101.095 128.196C101.103 127.838 101.116 127.481 101.126 127.124C100.71 127.042 100.283 127.017 99.8654 127.107ZM97.4541 127.753C97.5612 127.862 97.6696 127.973 97.7793 128.085C97.831 127.678 98.0831 127.357 98.3376 127.055C98.0023 127.23 97.705 127.47 97.4541 127.753ZM98.1625 128.053C98.7484 128.672 99.8781 128.05 99.5729 127.17C98.9643 127.089 98.0769 127.283 98.1625 128.053ZM101.362 127.078C101.399 127.424 101.416 127.772 101.42 128.123C101.686 128.103 101.953 128.084 102.222 128.064C102.243 127.873 102.264 127.684 102.288 127.496C102.022 127.272 101.697 127.15 101.362 127.078ZM97.0116 127.973C96.8856 128.501 96.9071 129.046 97.033 129.572C99.3663 129.938 101.769 129.746 104.103 129.444C104.18 128.998 104.255 128.541 104.152 128.094C102.32 128.643 100.386 128.627 98.4878 128.618C97.9267 128.613 97.4451 128.294 97.0116 127.973ZM97.0986 130.063C96.9802 131.026 97.6128 131.882 98.6251 131.849C100.318 131.916 102.078 132.067 103.72 131.56C104.443 131.321 104.047 130.445 104.018 129.902C101.727 130.19 99.3991 130.204 97.0986 130.063Z" fill="black"/>
<path d="M98.7734 9.77881C100.187 9.22419 101.863 9.2266 103.276 9.77507C101.784 9.4863 100.263 9.46122 98.7734 9.77881Z" fill="black"/>
<path d="M106.332 11.4141C107.02 11.7569 107.57 12.3696 107.944 13.0338C107.342 12.5661 106.858 11.9624 106.332 11.4141Z" fill="black"/>
<path d="M95.9023 18.8173C96.6108 17.8454 97.9367 18.2324 98.8872 18.5513C99.2415 18.6508 99.104 19.0895 99.1647 19.3604C98.1675 18.8362 97.0054 18.7858 95.9023 18.8173Z" fill="black"/>
<path d="M101.881 18.5773C102.962 18.2191 104.336 17.8423 105.283 18.7109C104.082 18.7372 102.837 18.8231 101.738 19.3525C101.782 19.0928 101.83 18.8356 101.881 18.5773Z" fill="black"/>
<path d="M97.145 19.1728C98.2064 19.1375 98.9729 20.1045 99.3005 21.0234C98.9729 20.9326 98.7673 20.6478 98.5215 20.4348C98.466 20.5911 98.4105 20.7474 98.3564 20.9036C98.5631 20.9263 98.7709 20.9515 98.9778 20.9818C98.3804 21.2313 97.6781 21.288 97.0416 21.1733C96.4983 20.896 96.3547 20.1233 95.6562 20.0717C95.9033 19.9015 96.1366 19.7112 96.3559 19.5069C96.4051 19.5802 96.506 19.725 96.555 19.7981C96.5751 19.6897 96.5954 19.5802 96.6156 19.4717C96.7668 19.5007 96.9194 19.531 97.0708 19.5626C97.0893 19.464 97.1272 19.2699 97.145 19.1728ZM96.7453 20.3554C96.8613 20.7424 97.2294 20.8985 97.5925 20.9804C97.4651 20.7686 97.334 20.5607 97.203 20.3526C97.0491 20.3527 96.8966 20.3539 96.7453 20.3554ZM97.8029 20.4233C97.7815 20.5948 97.7613 20.7662 97.7424 20.9375C97.9012 20.9363 98.0602 20.9351 98.2202 20.9351C98.1017 20.7485 97.9718 20.5683 97.8029 20.4233Z" fill="black"/>
<path d="M103.055 19.3374C103.417 19.263 103.784 19.2114 104.153 19.1875C104.138 19.3085 104.124 19.4295 104.11 19.5504C104.399 19.6362 104.684 19.7332 104.971 19.8279C105.173 19.756 105.379 19.6944 105.588 19.645C105.671 20.2274 104.815 20.0749 104.657 20.5538C104.284 21.4537 103.158 21.2434 102.397 21.087C102.482 20.9698 102.568 20.8551 102.655 20.739C102.768 20.8008 102.884 20.8639 103 20.9256C102.994 20.7732 102.99 20.6206 102.986 20.4681C102.599 20.4895 102.325 20.7542 102.13 21.0656C102.061 21.0341 101.921 20.9698 101.852 20.9382C102.142 20.5436 102.46 19.0991 103.02 19.6701C103.029 19.587 103.047 19.4205 103.055 19.3374ZM103.66 20.7404C103.489 20.719 103.32 20.6901 103.151 20.6573C103.161 20.724 103.183 20.8589 103.193 20.9258C103.531 20.9119 103.881 20.8943 104.178 20.7077C104.167 20.5463 104.157 20.3862 104.147 20.2262C103.942 20.3534 103.744 20.5035 103.66 20.7404Z" fill="black"/>
<path d="M99.6328 23.3867C99.8938 23.4864 100.141 23.6187 100.387 23.7523C100.559 23.6427 100.757 23.5972 100.962 23.5809C100.857 23.7826 100.688 23.9351 100.516 24.0787C100.195 23.8934 99.682 23.8329 99.6328 23.3867Z" fill="black"/>
<path d="M98.9766 25.1655C99.4151 25.0848 99.7834 24.8302 100.138 24.5742C100.253 24.6725 100.372 24.771 100.489 24.8703C101.095 24.0826 101.622 25.4906 102.362 25.0003C101.817 25.4554 101.547 26.32 100.746 26.3856C99.9181 26.5042 99.3925 25.7541 98.9766 25.1655ZM99.4529 25.5083C100.059 26.1386 101.087 26.2166 101.665 25.5046C100.928 25.5335 100.189 25.5902 99.4529 25.5083Z" fill="black"/>
<path d="M102.488 32.6247C102.482 32.002 102.649 31.368 103.041 30.875C102.917 31.47 102.85 32.1167 102.488 32.6247Z" fill="black"/>
<path d="M99.9648 31.0781C100.304 31.5268 100.502 32.0612 100.636 32.6034C100.197 32.2239 100.044 31.629 99.9648 31.0781Z" fill="black"/>
<path d="M87.5586 35.0464C88.9062 34.6442 90.4061 34.7753 91.8153 34.7187C92.9612 34.6481 93.8021 35.5682 94.0667 36.607C92.6914 37.6455 91.0187 38.2217 89.6485 39.2767C90.5145 42.6776 92.4002 45.7357 93.2663 49.1453C93.9104 51.1495 93.9243 53.4903 92.7242 55.2805C93.067 53.9644 93.6444 52.6396 93.3923 51.248C92.8893 47.9567 91.1977 45.0272 89.932 41.9932C89.6623 41.03 88.6981 39.6423 89.6523 38.8368C90.9822 38.0111 92.3713 37.2812 93.6872 36.4368C93.3884 35.8796 92.8968 35.3716 92.2339 35.3136C90.6822 35.1257 89.1065 35.3073 87.5586 35.0464Z" fill="black"/>
<path d="M101.441 41.0322C102.602 40.1788 104.19 40.02 105.568 40.33C104.145 40.1524 102.735 40.4385 101.441 41.0322Z" fill="black"/>
<path d="M99.4609 45.2876C100.558 44.9951 101.608 44.5778 102.635 44.0977C101.761 44.8425 100.588 45.1881 99.4609 45.2876Z" fill="black"/>
<path d="M100.285 52.243C100.715 51.4048 101.239 50.5475 102.002 49.9727C101.454 50.7416 100.943 51.5661 100.285 52.243Z" fill="black"/>
<path d="M109.117 78.2376C110.211 74.8228 111.319 71.398 112.134 67.9062C112.002 70.8546 110.841 73.6178 109.925 76.3859C109.65 76.9984 109.575 77.7244 109.117 78.2376Z" fill="black"/>
<path d="M87.3906 69.9141C87.7789 70.9389 87.8469 72.0518 88.0764 73.1182C88.7785 77.065 90.0693 80.8755 90.9944 84.7643C89.439 79.9403 87.8848 74.9888 87.3906 69.9141Z" fill="black"/>
<path d="M92.793 74.9141C94.3801 82.5225 96.8632 90.0266 97.2112 97.8544C97.1797 101.788 97.5073 105.711 98.0367 109.604C97.07 105.875 97.0573 101.947 96.8581 98.1089C96.6654 90.203 93.9717 82.6676 92.793 74.9141Z" fill="black"/>
<path d="M101.889 91.0533C102.192 85.6975 103.541 80.3287 105.787 75.4922C104.139 80.2027 102.577 85.0228 102.283 90.0447C101.858 94.8777 102.526 99.7093 102.476 104.546C102.199 104.455 102.295 104.124 102.258 103.909C102.167 99.6236 101.494 95.3416 101.889 91.0533Z" fill="black"/>
<path d="M111.267 103.563C111.242 99.9276 111.645 96.2958 111.93 92.6719C111.88 96.3047 111.557 99.9414 111.267 103.563Z" fill="black"/>
<path d="M102.219 109.984C103.455 110.41 104.808 110.649 106.038 110.059C104.994 111.002 103.236 110.883 102.219 109.984Z" fill="black"/>
<path d="M102.621 113.184C103.597 113.374 104.572 113.353 105.552 113.22C104.649 113.579 103.475 113.737 102.621 113.184Z" fill="black"/>
<path d="M107.246 129.24C112.741 128.694 118.295 128.393 123.826 128.301C118.292 128.491 112.779 129.121 107.246 129.24Z" fill="black"/>
<path d="M107.152 129.785C114.1 129.867 121.045 130.259 127.988 130.565C121.043 130.41 114.078 130.274 107.152 129.785Z" fill="black"/>
</g>
<defs>
<clipPath id="clip0_796_59221">
<rect width="199.342" height="140.278" fill="white" transform="translate(0.585938 0.152344)"/>
</clipPath>
</defs>
</svg>
