<svg width="200" height="141" viewBox="0 0 200 141" fill="none" xmlns="http://www.w3.org/2000/svg">
<g clip-path="url(#clip0_796_59529)">
<path d="M199.008 2.21094H2.57422V138.775H199.008V2.21094Z" fill="white"/>
<path d="M4.27344 98.6358C4.27344 98.6358 22.6638 98.439 24.2096 98.6862C25.7553 98.9336 20.4997 102.458 19.3249 104.127C18.1501 105.796 24.2096 103.385 26.5591 102.149C28.9087 100.912 20.8707 110.804 20.4379 111.608C20.0051 112.412 28.8469 108.826 30.1453 108.207C31.4438 107.589 27.1156 111.67 25.6935 113.092C24.2714 114.514 33.7315 114.452 35.7101 114.947C37.6887 115.441 18.2532 115.73 16.6869 114.288C15.1205 112.846 22.231 84.157 28.1667 77.6652C34.1025 71.1734 43.1229 71.5719 43.8374 71.7368C44.5519 71.9016 45.706 76.6004 46.6679 78.6064C47.6297 80.6123 50.9548 83.1128 53.6204 82.893C56.286 82.6731 60.1882 75.4189 60.1607 75.0617C60.1332 74.7045 58.7317 74.5671 56.6432 72.3962C54.5547 70.2255 52.9609 66.5433 52.7135 66.3235C52.4662 66.1037 53.0158 70.2804 55.5715 73.1656C58.1272 76.0509 63.1286 76.0234 64.8598 75.5288C66.5911 75.0342 66.069 72.9183 66.1514 71.1322C66.2338 69.3461 68.4048 67.615 69.0918 66.2961C69.7788 64.9771 68.7345 63.4932 68.4048 62.5315C68.075 61.5698 68.9544 61.0202 69.3116 59.9211C69.6689 58.8219 69.449 55.0162 68.0887 52.4195C66.7285 49.8228 61.8919 49.3144 59.9683 49.0671C58.0447 48.8198 63.9255 47.2535 63.9255 47.2535C63.9255 47.2535 61.782 46.5665 59.089 46.9513C56.3959 47.336 53.5654 50.0838 51.6143 51.3203C49.6632 52.5569 54.3074 47.0062 55.2692 45.4125C56.231 43.8187 51.2845 47.2535 49.6357 49.4518C47.9869 51.6501 47.6297 56.7885 48.0144 59.4539C48.3991 62.1193 52.5761 64.1802 52.9334 64.4275C53.2906 64.6748 52.0815 65.774 50.8174 65.5816C49.7695 65.4222 48.986 63.5823 48.7017 62.0653C48.4875 60.9228 48.9577 59.7329 49.9408 59.1126C52.1242 57.735 53.0367 61.1631 53.6479 62.2567C54.17 63.191 53.9502 60.3332 54.115 59.2341C54.2799 58.135 54.8845 58.6296 56.4234 58.1624C57.9623 57.6953 55.6814 53.6972 56.918 51.4303C58.1546 49.1633 65.2445 51.8012 66.8933 51.8837C68.5421 51.9661 69.2429 46.072 62.3591 44.0523C55.4752 42.0327 49.2097 45.2889 47.2312 50.3586C45.2526 55.4284 47.2999 59.2341 47.6022 60.663C47.9044 62.0919 48.2892 65.4992 47.1625 68.0547C46.0358 70.6102 44.3046 70.8025 43.645 71.1598C42.9855 71.517 43.2603 71.8192 44.0572 75.2815C44.8542 78.7438 48.2617 83.9921 52.1777 84.1158C56.0936 84.2394 56.918 81.9725 57.2478 81.2306C57.5776 80.4886 58.4019 80.736 59.8859 81.5603C61.3698 82.3847 62.1118 85.4348 61.5347 92.112C60.9576 98.7893 58.3607 108.063 57.7424 108.723C57.1241 109.382 39.6672 114.576 37.3795 114.275C35.0917 113.975 29.156 98.748 29.156 97.4497C29.156 96.1513 28.9087 92.0708 32.804 90.4633C36.6994 88.8558 42.3878 91.0197 43.0061 91.638C43.6244 92.2563 39.0489 90.9579 35.1536 91.6998C31.2583 92.4417 28.9705 96.3368 28.1049 96.6459C27.2393 96.9551 26.1676 84.8989 28.5583 79.9528C30.9491 75.0067 37.3383 74.306 41.0482 76.9439C44.758 79.5818 45.4588 94.585 45.6236 97.5527C45.7885 100.52 40.4711 101.963 40.4711 101.963C40.4711 101.963 40.9245 100.52 42.2023 99.6136C43.4802 98.7068 51.312 98.2122 57.2478 97.6764C63.1836 97.1406 71.0979 94.008 74.8489 93.3073C78.6 92.6066 86.9678 92.2631 88.0944 92.2631C89.2211 92.2631 90.6364 92.8127 91.1997 93.1287C91.7631 93.4447 95.4592 94.3927 95.7202 94.5301C95.9813 94.6675 95.8164 95.1484 95.3492 95.382C94.8821 95.6156 90.1554 93.4585 89.4135 93.4585C88.6715 93.4585 95.1019 95.7529 95.1019 95.7529C95.1019 95.7529 94.9645 96.3437 94.6897 96.5635C94.4149 96.7833 90.3066 95.0522 89.0563 94.8599C87.8059 94.6675 94.4974 96.907 94.5386 96.9895C94.5798 97.0719 94.4149 98.0336 93.9753 98.3084C93.5356 98.5832 88.3143 96.3849 87.3113 96.4124C86.3083 96.4399 93.4394 98.3909 93.618 98.5695C93.7967 98.7481 93.4119 99.751 92.9997 99.9571C92.5875 100.163 91.7768 99.8884 88.3418 99.3114C84.9068 98.7343 83.6289 98.5557 78.71 99.4075C73.791 100.259 72.1697 101.675 64.9561 106.332C57.7425 110.99 49.7732 112.982 49.2236 113.367C48.674 113.751 86.322 112.872 87.2014 112.542C88.0807 112.212 74.8902 112.46 74.0108 112.872C73.1314 113.284 87.064 114.328 87.8609 114.273C88.6578 114.218 99.3339 91.7617 99.8286 90.7725C100.323 89.7832 134.083 90.7519 134.413 90.9579C134.742 91.164 124.437 110.495 122.83 111.773C121.222 113.051 88.4517 113.957 87.7716 113.896C87.0914 113.834 98.4683 89.9687 98.9011 89.2886C99.3339 88.6085 135.773 89.4329 136.556 89.7626C137.202 90.0347 128.419 105.408 125.419 110.505C125.125 111.005 125.511 111.629 126.091 111.592L133.13 111.909C133.591 111.93 133.991 111.591 134.045 111.133C134.272 109.216 134.473 107.261 136.169 105.524C138.106 103.541 139.973 102.678 140.066 103.028C140.16 103.378 138.503 107.951 142.283 111.731C146.064 115.512 157.39 115.356 161.155 113.178C164.92 111 165.993 109.748 165.9 105.968C165.807 102.188 163.411 99.7218 163.333 100.017C163.255 100.313 163.916 103.704 162.026 106.154C160.136 108.605 153.088 110.331 148.491 108.908C143.894 107.485 142.447 105.944 142.54 102.584C142.633 99.224 142.61 84.7408 143.015 85.3009C143.419 85.8609 145.255 89.3767 152.505 89.3456C159.755 89.3144 162.446 86.7398 162.609 85.7131C162.773 84.6863 161.419 82.8429 161.046 82.9829C160.672 83.1229 154.535 85.6897 149.424 84.5697C144.314 83.4496 143.077 80.6961 143.279 79.2182C143.481 77.7403 144.415 76.3558 144.881 76.5891C145.348 76.8225 155.305 82.8118 155.523 82.4384C155.741 82.0651 155.959 78.0203 155.959 78.0203C155.959 78.0203 143.606 72.5444 142.921 71.0198C142.237 69.4953 143.761 63.9571 146.126 63.1171C148.491 62.277 153.742 63.0082 156.542 64.7816C159.342 66.5551 162.991 69.3397 162.306 70.2109C161.621 71.0821 159.723 72.9178 158.759 75.3757C157.794 77.8336 158.549 80.4627 159.762 81.6294C160.976 82.7962 163.613 85.6197 166.297 85.153C168.98 84.6863 170.987 82.9207 172.279 80.2294C173.57 77.5381 173.041 76.9314 173.445 76.418C173.85 75.9046 189.159 55.121 189.719 54.841C190.279 54.561 193.95 53.2232 195.537 49.0229C197.124 44.8226 195.677 42.3569 194.324 41.5402C192.97 40.7235 190.248 39.2223 188.474 39.44C186.701 39.6578 184.336 40.9023 182.687 45.2582C181.038 49.614 181.38 50.2363 180.758 50.2363C180.135 50.2363 165.62 42.2402 166.017 40.9801C166.413 39.72 173.111 36.5465 173.298 35.8231C173.484 35.0997 172.317 30.6894 170.264 30.8528C168.21 31.0161 153.065 39.8445 153.407 40.1245C153.749 40.4045 156.985 43.7648 156.736 45.196C156.488 46.6271 150.576 49.7074 150.482 49.4896C150.389 49.2718 150.233 45.1337 149.891 44.7915C149.549 44.4492 142.517 40.7157 142.423 40.7468C142.33 40.7779 132.186 46.4405 131.844 46.9694C131.502 47.4984 130.895 52.5076 131.782 53.581C132.669 54.6544 139.39 56.8012 139.203 57.3146C139.016 57.8279 138.363 59.6481 137.756 59.4614C137.149 59.2747 130.475 54.7477 130.008 55.0744C129.542 55.4011 123.52 69.6283 121.988 72.7821C120.456 75.9358 119.958 78.9226 120.051 79.7627C120.145 80.6027 121.669 83.3096 121.172 83.8385C120.674 84.3674 120.145 84.1185 120.02 84.0252C119.896 83.9319 117.531 81.1005 117.905 79.296C118.278 77.4914 120.968 68.4375 121.988 67.8153C123.007 67.193 123.35 67.5041 123.163 67.9086C122.976 68.3131 121.265 71.7355 121.452 71.9533C121.638 72.1711 129.355 76.9314 130.693 76.6514C132.031 76.3713 133.12 74.8157 132.933 73.9134C132.747 73.0111 131.346 71.7666 132.249 70.7088C133.151 69.6509 134.613 70.1799 134.769 70.9577C134.925 71.7355 135.578 75.8424 134.52 76.9314C133.462 78.0204 128.025 85.013 125.971 85.3864C123.918 85.7598 121.864 85.5498 121.771 85.1531C121.677 84.7564 121.771 83.7063 122.727 83.543C123.684 83.3796 125.388 83.2863 126.158 82.8896C126.928 82.4929 133.042 76.1225 133.742 75.0724C134.442 74.0223 146.655 55.8367 147.122 52.7565C147.589 49.6763 144.135 48.7429 142.797 50.6408C141.459 52.5387 138.97 61.0637 137.849 61.2815C136.729 61.4993 129.231 57.4997 129.853 58.5816C130.475 59.6636 137.352 63.4594 138.783 62.8371C140.214 62.2149 143.419 57.3612 145.068 55.8678C146.717 54.3743 149.891 52.9431 149.953 52.6942C150.016 52.4453 149.922 46.9072 149.487 46.4405C149.051 45.9737 145.255 43.6092 145.255 43.6092C145.255 43.6092 150.918 38.6933 152.411 40.1556C153.905 41.6179 156.145 46.0671 157.421 45.3515C158.697 44.6359 172.17 36.3909 172.107 35.582C172.045 34.773 171.61 31.5995 170.241 31.8173C168.871 32.0351 167.316 34.0574 166.476 34.0263C165.635 33.9952 163.551 33.2796 163.551 32.7817C163.551 32.2839 163.208 25.6879 164.111 24.5368C165.013 23.3856 175.001 17.5052 175.841 17.6918C176.681 17.8785 190.87 25.159 191.057 26.8391C191.243 28.5192 191.617 34.3529 191.197 34.633C190.777 34.913 179.777 41.509 178.206 41.3223C176.635 41.1356 170.987 37.4098 171.874 37.6898C172.761 37.9698 177.942 39.9766 178.595 39.8366C179.248 39.6966 189.26 34.3063 189.423 34.6563C189.586 35.0063 189.983 37.9698 189.913 38.0865C189.843 38.2032 184.647 38.911 182.531 42.4579C180.415 46.0048 181.193 50.5473 180.789 51.2318C180.384 51.9163 167.378 69.3086 167.533 69.4953C167.689 69.682 172.854 74.0067 173.165 73.82C173.476 73.6333 189.33 52.2741 189.843 52.0875C190.357 51.9008 194.417 49.614 193.997 46.5338C193.577 43.4536 190.497 43.5936 189.516 45.8337C188.536 48.0739 189.003 49.754 188.07 50.9207C187.136 52.0875 172.45 72.0777 171.858 71.7666C171.267 71.4554 167.253 69.2153 166.258 69.3708C165.262 69.5264 161.528 71.5177 160.501 75.2201C159.475 78.9226 162.19 85.2466 166.258 84.1496C170.295 83.0608 172.295 79.4745 171.716 76.5918C171.046 73.2535 166.394 72.8378 165.047 75.9651C164.014 78.3629 163.832 81.3697 163.395 81.3183C162.866 81.2561 145.69 70.2731 145.317 71.0821C144.944 71.891 144.726 75.2823 144.913 75.5002C145.099 75.718 159.879 82.5629 159.389 82.7962C158.899 83.0295 154.162 85.433 150.334 83.6362C146.507 81.8394 145.014 77.8959 144.5 78.4092C143.987 78.9226 143.52 84.0329 143.637 84.5696C143.754 85.1064 146.624 88.1165 151.525 88.4432C156.425 88.7699 163.123 84.5463 163.17 85.853C163.216 87.1598 162.835 102.195 162.399 103.409C161.964 104.622 159.724 107.453 154.309 107.827C148.895 108.2 145.737 108.021 144.5 105.454C143.264 102.888 143.474 99.7373 142.96 99.9006C142.447 100.064 140.636 100.514 140.3 104.008C139.964 107.501 144.36 111.825 151.431 112.221C158.502 112.618 164.616 108.114 165.036 106.598C165.457 105.081 164.803 102.281 166.18 102.817C167.557 103.354 170.769 105.929 171.61 108.978C172.45 112.027 172.263 114.236 169.432 117.316C166.6 120.396 158.417 123.881 149.269 122.637C140.121 121.392 136.775 118.312 135.43 116.321C134.085 114.329 133.898 112.338 134.271 112.774C134.645 113.209 135.858 118.81 145.877 120.676C155.896 122.543 164.173 119.681 167.253 117.69C170.334 115.698 171.454 111.623 171.672 111.529C171.89 111.436 192.037 111.529 192.037 111.529" stroke="black" stroke-width="0.738301" stroke-miterlimit="10"/>
</g>
<defs>
<clipPath id="clip0_796_59529">
<rect width="199.341" height="140.277" fill="white" transform="translate(0.582031 0.148438)"/>
</clipPath>
</defs>
</svg>
